<?xml version="1.0" encoding="utf-8"?>
<!-- Generator: Adobe Illustrator 21.1.0, SVG Export Plug-In . SVG Version: 6.00 Build 0)  -->
<svg version="1.0" xmlns="http://www.w3.org/2000/svg" xmlns:xlink="http://www.w3.org/1999/xlink" x="0px" y="0px" width="400px"
	 height="400px" viewBox="0 0 400 400" style="enable-background:new 0 0 400 400;" xml:space="preserve">
<style type="text/css">
	.st0{opacity:0.8;}
	.st1{fill:none;stroke:#8CBAA3;stroke-miterlimit:10;}
	.st2{fill:none;stroke:#8CBAA3;stroke-width:6;stroke-linecap:round;stroke-linejoin:round;stroke-miterlimit:10;}
	.st3{fill:#009EE5;}
	.st4{opacity:0.6;fill:#009EE5;}
	.st5{fill:#8CBAA3;}
	.st6{fill:none;stroke:#232323;stroke-width:6;stroke-linecap:round;stroke-linejoin:round;stroke-miterlimit:10;}
	
		.st7{fill:none;stroke:#8CBAA3;stroke-width:6;stroke-linecap:round;stroke-linejoin:round;stroke-miterlimit:10;stroke-dasharray:12;}
	.st8{fill:#FFFFFF;}
	.st9{fill:#FFFFFF;stroke:#232323;stroke-width:6;stroke-linecap:round;stroke-linejoin:round;stroke-miterlimit:10;}
	.st10{fill:none;stroke:#222222;stroke-width:6;stroke-linecap:round;stroke-linejoin:round;stroke-miterlimit:10;}
	.st11{fill:none;stroke:#232323;stroke-width:6.8798;stroke-linecap:round;stroke-linejoin:round;stroke-miterlimit:10;}
	.st12{fill:none;stroke:#009EE5;stroke-width:6;stroke-linecap:round;stroke-linejoin:round;stroke-miterlimit:10;}
	.st13{fill:none;stroke:#232323;stroke-width:4.8189;stroke-linecap:round;stroke-linejoin:round;stroke-miterlimit:10;}
	.st14{fill:#99D8F5;stroke:#232323;stroke-width:6;stroke-linecap:round;stroke-linejoin:round;stroke-miterlimit:10;}
	.st15{fill:none;stroke:#231F20;stroke-width:6;stroke-linecap:round;stroke-linejoin:round;stroke-miterlimit:10;}
	.st16{fill:#009EE5;stroke:#232323;stroke-width:6;stroke-linecap:round;stroke-linejoin:round;stroke-miterlimit:10;}
	.st17{fill:#99D8F5;}
	.st18{display:none;}
</style>
<metadata><?xpacket begin="﻿" id="W5M0MpCehiHzreSzNTczkc9d"?>
<x:xmpmeta xmlns:x="adobe:ns:meta/" x:xmptk="Adobe XMP Core 5.6-c137 79.159768, 2016/08/11-13:24:42        ">
   <rdf:RDF xmlns:rdf="http://www.w3.org/1999/02/22-rdf-syntax-ns#">
      <rdf:Description rdf:about=""
            xmlns:dc="http://purl.org/dc/elements/1.1/"
            xmlns:xmp="http://ns.adobe.com/xap/1.0/"
            xmlns:xmpGImg="http://ns.adobe.com/xap/1.0/g/img/"
            xmlns:xmpMM="http://ns.adobe.com/xap/1.0/mm/"
            xmlns:stRef="http://ns.adobe.com/xap/1.0/sType/ResourceRef#"
            xmlns:stEvt="http://ns.adobe.com/xap/1.0/sType/ResourceEvent#"
            xmlns:illustrator="http://ns.adobe.com/illustrator/1.0/"
            xmlns:xmpTPg="http://ns.adobe.com/xap/1.0/t/pg/"
            xmlns:stDim="http://ns.adobe.com/xap/1.0/sType/Dimensions#"
            xmlns:xmpG="http://ns.adobe.com/xap/1.0/g/"
            xmlns:pdf="http://ns.adobe.com/pdf/1.3/">
         <dc:format>image/svg+xml</dc:format>
         <dc:title>
            <rdf:Alt>
               <rdf:li xml:lang="x-default">icones-hclinic-esclerosis_multiple</rdf:li>
            </rdf:Alt>
         </dc:title>
         <xmp:MetadataDate>2017-09-20T18:02:33+02:00</xmp:MetadataDate>
         <xmp:ModifyDate>2017-09-20T18:02:33+02:00</xmp:ModifyDate>
         <xmp:CreateDate>2017-09-20T18:02:33+02:00</xmp:CreateDate>
         <xmp:CreatorTool>Adobe Illustrator CC 2017 (Macintosh)</xmp:CreatorTool>
         <xmp:Thumbnails>
            <rdf:Alt>
               <rdf:li rdf:parseType="Resource">
                  <xmpGImg:width>256</xmpGImg:width>
                  <xmpGImg:height>124</xmpGImg:height>
                  <xmpGImg:format>JPEG</xmpGImg:format>
                  <xmpGImg:image>/9j/4AAQSkZJRgABAgEASABIAAD/7QAsUGhvdG9zaG9wIDMuMAA4QklNA+0AAAAAABAASAAAAAEA&#xA;AQBIAAAAAQAB/+4ADkFkb2JlAGTAAAAAAf/bAIQABgQEBAUEBgUFBgkGBQYJCwgGBggLDAoKCwoK&#xA;DBAMDAwMDAwQDA4PEA8ODBMTFBQTExwbGxscHx8fHx8fHx8fHwEHBwcNDA0YEBAYGhURFRofHx8f&#xA;Hx8fHx8fHx8fHx8fHx8fHx8fHx8fHx8fHx8fHx8fHx8fHx8fHx8fHx8fHx8f/8AAEQgAfAEAAwER&#xA;AAIRAQMRAf/EAaIAAAAHAQEBAQEAAAAAAAAAAAQFAwIGAQAHCAkKCwEAAgIDAQEBAQEAAAAAAAAA&#xA;AQACAwQFBgcICQoLEAACAQMDAgQCBgcDBAIGAnMBAgMRBAAFIRIxQVEGE2EicYEUMpGhBxWxQiPB&#xA;UtHhMxZi8CRygvElQzRTkqKyY3PCNUQnk6OzNhdUZHTD0uIIJoMJChgZhJRFRqS0VtNVKBry4/PE&#xA;1OT0ZXWFlaW1xdXl9WZ2hpamtsbW5vY3R1dnd4eXp7fH1+f3OEhYaHiImKi4yNjo+Ck5SVlpeYmZ&#xA;qbnJ2en5KjpKWmp6ipqqusra6voRAAICAQIDBQUEBQYECAMDbQEAAhEDBCESMUEFURNhIgZxgZEy&#xA;obHwFMHR4SNCFVJicvEzJDRDghaSUyWiY7LCB3PSNeJEgxdUkwgJChgZJjZFGidkdFU38qOzwygp&#xA;0+PzhJSktMTU5PRldYWVpbXF1eX1RlZmdoaWprbG1ub2R1dnd4eXp7fH1+f3OEhYaHiImKi4yNjo&#xA;+DlJWWl5iZmpucnZ6fkqOkpaanqKmqq6ytrq+v/aAAwDAQACEQMRAD8A9U4q7FXYq7FXYq7FXYq7&#xA;FXYq7FXYq7FXYq7FXYq7FXYq7FXYq7FXYq7FXYq7FXYq7FXYq7FXYqwHz9590RPLmtWcS3E8Mltd&#xA;WLalDEWtI7poJAsLTVFW5rwJQMFb4WIOHhLHiF0kv5b+cIrAa1YPp99emK8S5ubi1jSZYo5raJFL&#xA;J6nrtvC32I2wiJKmYD07S9V07VbJL3T7hLm2kqFkQ9GU0ZWB3VlOzKdwdjkWQKX6nrNvHJEskksN&#xA;tMyxxuqsnqyu1AvqEfCoG/LavY9jZjxSnddBbjZtRGFX1NfF5dPr/mb9I3c094tpBDNNZfV4oUit&#xA;nnglZKNJdn0bvltQPcwSeCtUZVTaMYZX5bs/zItXeZpYriOZXniguQIrUoz1SFQgSe0lAbesc6mh&#xA;3FVALKMaZjoWsQ6vpkd7EhiYl454GKs0U0TGOWNipKko6kVGx6jbFkj8VdirsVdirsVdirsVdirs&#xA;VdirsVdirsVdirsVdirsVdirsVdirsVdirsVdirG/O+oXEdpbaTZzPBd6s7RPcRcjJBaRIZLqdOI&#xA;LcljHBCNw7LkohjM9zHPMFmuu/lhqMNpoz6ZZaY3PTLG8WSD17SyKuS0KmGWJZ0V0CsVam5pXEEk&#xA;+9BAA9yE8tRReXNe8yayhS9S4sdMdUtIjbevcXDyJBGIpJZUR25IvwcF3FVrUl/hX+L4J1BBq2ha&#xA;jpOsX8cME+rPFp3mSG1Ja3kuXHp212lVQhmlCx7j7L0NeK4eY9yK4T5Fll7Fcz/u1hhkhBBYT7h/&#xA;anFqfP8ADIiRBsLOPFsQCPNiOueQL641y51/T2t1vJ0jie0Z57cSRxVADXEJbZlPxJJBKmw+Gu+B&#xA;mLTOLzfew2EoufLeo2+oW5jiTT4olnjkZwxX0biEtD6ahPiZyvHYEVIBUo7RIfLl3czazptoIL16&#xA;wXcjQPazkij8Zo3WNyRyqOY77dcVTnFXYq7FXYq7FXYq7FXYq7FXYq7FXYq7FXYq7FXYq7FXYq7F&#xA;XYq7FXYq7FXYqx2JkufzAuA5BOmaZEtuO/K9ndp9vZbWHf3yVHhthY4q60hfNjaofLN9p946CTVb&#xA;xNMtpYSQwtb+dIeXE/7sihkav+ry6bBis+5dqlvBaedtGa3RWOoWs9reWlAQ8Npxmhlodv3Mj8R/&#xA;xkwx5FZbEJd5x8xm68v6rayaZe2GpadajVo47hYmUC0kE0berBLPECzw0A5cuppQHBHms+TO8izd&#xA;irsVdirsVdirsVdirsVdirsVdirsVdirsVdirsVdirsVdirsVdirsVdirsVdirsVdirGtd8iWWra&#xA;wmrpqN9pl8sSwtJYyRpyVGLLX1I5aEciPhpUda5dj1EoAgcj5W42bSwyESN8Q6gkfciNN8oWVpdw&#xA;313eXmrX1vUW1xfyh/SqvElIo1ihVipI58OVO+VykS3RgAqa/wCVrPWbiyvGuLmx1HTjJ9Tv7Nwk&#xA;qLMFEqEOskbo/Baq6EbDADTIi0r1byr5svtOu9K/xDHNp17E9vObqyVrkRyji5WWCS3j5cSaVi64&#xA;eLyY8Hmy3Is3Yq7FXYq7FXYq7FXYq7FXYq7FXYq7FXYq7FXYq7FXYq7FXYq7FXYq7FXYq7FXYq7F&#xA;XYq7FXYq7FXYqhr3U9NsRGb67htRM4jhM8ix83PRV5EVPsMVROKqVzdWtrC091MkECfbllYIgrtu&#xA;zEDFVRWV1DKQysKqw3BB6EHFW8VdirsVdirsVdirsVdirsVdirsVdirsVdirsVdirsVdirsVUL6+&#xA;s7Cznvb2ZLe0tkaW4nkIVERBVmYnoAMVS7SPN/l3V7s2en3fqXQhFx6DxyROYiQvMLKqEgMQGp9k&#xA;7GmKpxirsVdirsVdirsVdiryb8x9L8t+Y/N9hDNFF5jeO1ubJdJt7+2ilt7okSB5IXlidlYL8fE7&#xA;cRVWGKOaY6F528xzq+gx28c2r2cTDmhZiBZzi1ulkMh3kUlHDLUMG2Xbe7TiBlUzQcXVZMgifDFy&#xA;FfL8e/3Nfmh9RvbDQbK4Q6pcCdJ309pGgvCrRtGLkRRKsnJGJACx/aNONOWVzHqLfj3gLs7def6P&#xA;uTn8r7nTI/Lkej212stzp7zGSzaSN7i3gmuJJLaOZY/hUrEyr8Pw1BA2GRpmCOTMMUuxV2KuxV2K&#xA;uxV2KuxV2KuxV2KuxV2KuxV2KuxV2KtM3FSwBagrxHU+wrirzHyf+bXmHzFrGr2sHliaS1sJG4sk&#xA;iRyxKhCG3n9UiI3LMGcKHC8e+3JrcmMRANg39jRizGRkDEjhPXr7k88w61e3fl2+/Sej3WnaLdQS&#xA;xzX7PE9xaxspUXMtsrEhE+2aMWUfaUb0qb0z0bQtcj1f9Ka1qUV/LHDJBZJBB6CxJctHJMpPN+Y5&#xA;QIEPUDrUmuKsgxV2KuxV2KuxV2KuxV5V/wA47XEzeVL23kFBFcxupIPI+rbRMWNetTmf2hKzAd0I&#xA;/rdX2VGo5CeuWf31+hH/AJa+W7z9N6j5quGcQXpuVsBMymWVbq4E0s0gWoRf3MaRJ1Cjema92EIk&#xA;Ek9U5tNV9L8z77SvTBN5pi3Rl7gWkiIF+R+tk4Wxi/lg3Uv57a/PMh9MWc8MMvGgIjNhVQ3fjUVz&#xA;OzTB0+MdQZfodZp8ZGrymtpCH3F6rmC7N2KuxV2KuxV2KuxV2KuxV2KuxV2KuxV2KuxV2KtOWCMU&#xA;AZwDxUmgJ7Cu9MVeP2/nfzW+lW2orriy30sUF0NJMFsoaS4ZUW3ZQvrLG0h9Nfi5g9WalMzDp48F&#xA;30dcNVMz4a2uk8fyrY6l5buITHH+lPLtxeRW6yzy2sAlV1eCeZoSCJPqgiKyEHgGOxGYbsWotJt7&#xA;byrrHmRRE+s69Hcwo1pdy3ltM9/P6dkhkYhX4F0jDIoCgkLtir0O3hWCCOFSSsSqgJ6kKKYqvxV2&#xA;KuxV2KuxV2KuxV57p+qJ5c1caZp9jEbbUNYkt5SXZWiiWOBEWMUbZGm+FahVUcVoKUVZP5J/5RTT&#xA;P+MI/WcVYz+YOn2i+YrbVhbpJeQaLqQVi0sXIpc2PpCRoWjdlQu54174qi/y/SxnvrnVYbVLee/0&#xA;3S55ACZGHqwuxX1H+NqbCp60HhirNsVdirsVdirsVdirsVdirsVdirsVdirsVdirsVdirsVSKPyN&#xA;5Sjvkvk0yEXcdw92kvxEiaQhmbc0pzUOF+yGAYANvhso4Qoa15NfUryZotRktNP1B4X1mxSNGFz6&#xA;AC05tugkRVjl2PJFAHHckJSvzDY6bol/bXt7qc40hr1r6HQYIBK8t45qX5IDJ6Syt6xFP7w1LfZX&#xA;FW/ywg0+0j1i1g1bUNRuHvZbmaHVEaOWEO7LRFcCq8kILDYsDsvTCTbGMaZvgZOxV2KuxV2KuxV2&#xA;KsZ1DyJaXmoz3y31zbys4uLRY/SK291WMtMvNG5cvq6fC9V+147Kp7pun22nafb2FsGEFsixx8iW&#xA;YhRSrE9Se+KoDXvLNtrM9tLLPLB6CyQyrFxpNbzNG8kLcg1AzQJ8S0agoCK4q7y35ZttCgeKGeW4&#xA;5LHDG03GsdvbrwghXiFqI1/aarE7k4qnGKuxV2KuxV2KuxV2KuxV2KuxV2KuxV2KuxV2KuxV2KvO&#xA;dZ/Jqy1PU7q/lvo5HuZpJuVzZwzyqJXL+mZSVZlTlxSv2VovQDBTCUL6lCL+QuhUrJdpy7iOxs1X&#xA;7mRz+ONMfCHefmi9M/JLRLCExpql39uRo6Q2FIxKwZkT1LaRlXkK8a0+7C2jZknlnyRp3l+8uby3&#xA;uJ7me5jSF2mW3UKkbMwCi3igHV+9cVZFirsVdirsVdirsVdirsVdirsVdirsVdirsVdirsVdirsV&#xA;dirsVdirsVdirsVdirsVdirsVdirsVdirsVdirsVdirsVdirsVdiqySaGLj6jqnI8V5ECpPYVxVf&#xA;irTyJGheRgiLuzMaAfMnFW8VdirsVdirsVdirsVdirsVdirsVdirsVdirsVdirsVdirsVdirsVdi&#xA;rsVdirsVdiqhqF9bafYXN/dNwtbSJ553ALUjjUuxoKk0A7Yqh9G17S9Zhmm06b1o7eX0JW4slJAi&#xA;yU+ML+zIpxVH4q8p/M/y9onmDzVYR6hBLrUMdpcW0Ol2lxApjvCRKhljZklAkCj41YcePxfCcUUn&#xA;flTznqd+G0KaBE1e0gNHWRpS31Wb6rciTmkdJUbix3ZTy2Jpk8fDe/JqySNER+pJPP5F7oej2OuB&#xA;7ieTUXZ7Ey+ndEVdEljhjiZ5hEW2VIXB2qCKtlmpEeL08qDVpOM4/Xd2efv9wZP+V1zpv+FYNOtL&#xA;9LxrB509MywyTwwPcSNapOkNFjcQcBw4jj0A2yhygy/FLsVdirsVdirsVdirsVdirsVdirsVdirs&#xA;VdirsVdiq2WSOKN5ZGCRxgs7nYBQKknFXnkn526CNUltorK5ksYVZpr8j01RYzGZGZZAnwqs6UAY&#xA;uSQOAqCVANpj5m0nTfNWveXrWaZbrRJbS8v3iWkkVwEe1WJlYH4f77Z134llH2jilT/KqSzNv5lh&#xA;sVEVla67c29vAgCxxiOGAOsaD4VX1OR27mvfLsxHFt3Bx9MDw795+9nGUuQ7FXYqpXV1bWlrNdXU&#xA;qw20CNLNM5CqiIKszE9AAMVeaef/ADV5rbyfd6jHYwWuh6jHJZRWdysp1CWO6hdI5hxISFixXjEy&#xA;sxHUqx45Pha+PcdxS78ub3zauseZNF017S3l0+W3u5bO/gl5u1zAqU9RXQx7QCh4N1Ox7AAUmUjd&#xA;B6ToPmIalJPZXds2n6xZhTd2DsHorkhJYpAAJIn4ni1B4EA7YCKTGVvPf+cd2SbyzemWJHmiu1f6&#xA;wwrKzy20TOzOakkneuZ2vq4ACvRH9breyrMchJu8s/vr9CY/lp5f1CTXtR81XTv9WujdR2LyAI9w&#xA;t1cLLJMY6kxxqII44lb4qAk9ide7CETZJ6p5aaokX5n32l+kDJeaYlz69d1W0kVOHToTeE9dvpwt&#xA;jFvK800358eYXkGyWU0SsBQFYzY0+ZFcz85vT4/Iy/Q6vTRrV5fMQP2EfoerZgO0dirsVdirsVdi&#xA;rsVdirsVdirsVdirsVdirsVdirsVee/mxrmrxwW+haTKsU2pqILglQxIu547SJDX7Kv6rkkUPw7E&#xA;YsZHcBJdD8j69Fo0GqJEl5MzS3ohA9GSVvrL3qfu3NF9X6lYIFL7fFXYYpAoUr2/ki41vyHHBFeS&#xA;3F5odzdJolwrojzC1JgaKWUBeUUtzCX6io477VxSzbyN5cg0Dy3a2iWi2d1KiT6hCjmRRctGqyUY&#xA;ltl4BVA2AAAwmRPNjGIHJP8AAydirsVYx5uEuo6jpXl+NFkiuTLf3sTkqkkNiUKQuwDlVkuJYuXw&#xA;mqhhQ5KPewn3Jf5h0nWZPIGut5m1CP64qy6jbzWPOFbP6uqywJHISHf03i5czxrXoMY81nyS6w0+&#xA;40zWtWTRrZrLVLjS9MWztXZ50iWaeVbiaNZmpSEvVo1oCVBIq270X+L4JpqOi/4ctPLt5DczXcmk&#xA;XEGnPdXHp+s9jeOts0crRpGpEbNHJWn7AJqa1RypZbEFA6VqVt5Z1Q6XYWCNBqGrvas5lZTDCkcC&#xA;xqgKyclRpqKlVVV6ZFnTJ/JP/KKaZ/xhH6zirGvPthaReZrbWRE5u4NE1KphubizeQx3Fj6SyS2z&#xA;I5RTI23viqK8hRWFzqNxq8NsYZrzTdNn/eSvcSJ9ZiLuDLKS7k+mgZju3Ba/ZFFWbYq7FXYq7FXY&#xA;q7FXYq7FXYq7FXYq7FXYq7FXYq7FXYq89/MXT7qPXNP1mxdfrFpEszW8qFo5ntrhFtoQwI4PLJds&#xA;oO9OtPh3WJjvbLda1t9OWzhS1lub3UJDBaxQ8ColEbSkuZHhHBVRmO9dtt6Ysl3lnRE0Py9p2kI/&#xA;q/UbeOF5qcfUkVf3khFTQu9WPzxVM8VdirsVdirz/WPNVron5kXEl8rGBtMtoUC0qtZpXLgMRs7E&#xA;Kf8AVzP02jOaB4eYLq9b2hHT5Y8Q9JB+8LtT1DQdRhTy9o962pz6vfw3d5bI3qejaGdJroTFRyii&#xA;dEdQJO7cB2AxZY5QJEti5sM0cgBjuCj/ADVqNjZedPK31idLOSZNQSO6lPGNh6cZNuSaLyduLgEj&#xA;7BpkY9Wc+h80H5wXzYfLHmBb+exudOj0ya4hu7aGSBxcRqWRAjT3FeJTkWqOwAO5AjsUy3CTeY+H&#xA;+Jbr6p9Z+s/Wl/Q1fQ9D9J8rX1edf3npU9Lr/wAWU/YyLNn/AJT+p/4a036n6v1b6unp+vx9Xpv6&#xA;nD4OVevHbw2xVj/5g/Vfr2mer9Yp6Vz9e9D0qfo71bb6zX1N6+r6P2Pi486b0xV35ZfVfqM3p/WK&#xA;+la/VfrHpV/R3pH6jT0tq+lXny+LlXtxxVmuKuxV2KuxV2KuxV2KuxV2KuxV2KuxV2KuxV2KuxV2&#xA;KtPwp8dKVFOXStRx6+/TFUDd/ov9Maf9Y/46HCf6jXlxpRPV6fBy40pXelad8VR+KuxV2KuxV2Kp&#xA;D5n/AMCVg/xT+i67/Vv0n9X8RX0/X/hhFoNI7Q/8P/UF/QP1T9H/ALH1H0/Rr7el8OBKpq36H+ov&#xA;+l/q/wBQ29T63w9H25ep8OKsEuv+VM0b0vT+p0/0j9F/W/qPDv8AWPqP+jen/N6vw067ZMcVdaaz&#xA;wXvVv//Z</xmpGImg:image>
               </rdf:li>
            </rdf:Alt>
         </xmp:Thumbnails>
         <xmpMM:InstanceID>xmp.iid:4edd1725-c555-460c-ac59-5fd4c114d1b5</xmpMM:InstanceID>
         <xmpMM:DocumentID>xmp.did:4edd1725-c555-460c-ac59-5fd4c114d1b5</xmpMM:DocumentID>
         <xmpMM:OriginalDocumentID>uuid:5D20892493BFDB11914A8590D31508C8</xmpMM:OriginalDocumentID>
         <xmpMM:RenditionClass>proof:pdf</xmpMM:RenditionClass>
         <xmpMM:DerivedFrom rdf:parseType="Resource">
            <stRef:instanceID>uuid:945de76d-4573-504d-88b1-b65cc2238c49</stRef:instanceID>
            <stRef:documentID>xmp.did:f8f6a572-c07f-4b17-8034-7be088092443</stRef:documentID>
            <stRef:originalDocumentID>uuid:5D20892493BFDB11914A8590D31508C8</stRef:originalDocumentID>
            <stRef:renditionClass>proof:pdf</stRef:renditionClass>
         </xmpMM:DerivedFrom>
         <xmpMM:History>
            <rdf:Seq>
               <rdf:li rdf:parseType="Resource">
                  <stEvt:action>saved</stEvt:action>
                  <stEvt:instanceID>xmp.iid:01801174072068118C148BE9CF4A7875</stEvt:instanceID>
                  <stEvt:when>2015-10-21T12:14:05+02:00</stEvt:when>
                  <stEvt:softwareAgent>Adobe Illustrator CS6 (Macintosh)</stEvt:softwareAgent>
                  <stEvt:changed>/</stEvt:changed>
               </rdf:li>
               <rdf:li rdf:parseType="Resource">
                  <stEvt:action>saved</stEvt:action>
                  <stEvt:instanceID>xmp.iid:4edd1725-c555-460c-ac59-5fd4c114d1b5</stEvt:instanceID>
                  <stEvt:when>2017-09-20T18:02:33+02:00</stEvt:when>
                  <stEvt:softwareAgent>Adobe Illustrator CC 2017 (Macintosh)</stEvt:softwareAgent>
                  <stEvt:changed>/</stEvt:changed>
               </rdf:li>
            </rdf:Seq>
         </xmpMM:History>
         <illustrator:StartupProfile>Print</illustrator:StartupProfile>
         <xmpTPg:HasVisibleOverprint>False</xmpTPg:HasVisibleOverprint>
         <xmpTPg:HasVisibleTransparency>True</xmpTPg:HasVisibleTransparency>
         <xmpTPg:NPages>1</xmpTPg:NPages>
         <xmpTPg:MaxPageSize rdf:parseType="Resource">
            <stDim:w>14.111111</stDim:w>
            <stDim:h>14.111111</stDim:h>
            <stDim:unit>Centimeters</stDim:unit>
         </xmpTPg:MaxPageSize>
         <xmpTPg:PlateNames>
            <rdf:Seq>
               <rdf:li>Cyan</rdf:li>
               <rdf:li>Magenta</rdf:li>
               <rdf:li>Yellow</rdf:li>
               <rdf:li>Black</rdf:li>
            </rdf:Seq>
         </xmpTPg:PlateNames>
         <xmpTPg:SwatchGroups>
            <rdf:Seq>
               <rdf:li rdf:parseType="Resource">
                  <xmpG:groupName>Grupo de muestras por defecto</xmpG:groupName>
                  <xmpG:groupType>0</xmpG:groupType>
                  <xmpG:Colorants>
                     <rdf:Seq>
                        <rdf:li rdf:parseType="Resource">
                           <xmpG:swatchName>White</xmpG:swatchName>
                           <xmpG:mode>RGB</xmpG:mode>
                           <xmpG:type>PROCESS</xmpG:type>
                           <xmpG:red>255</xmpG:red>
                           <xmpG:green>255</xmpG:green>
                           <xmpG:blue>255</xmpG:blue>
                        </rdf:li>
                        <rdf:li rdf:parseType="Resource">
                           <xmpG:swatchName>Black</xmpG:swatchName>
                           <xmpG:type>PROCESS</xmpG:type>
                           <xmpG:tint>100.000000</xmpG:tint>
                           <xmpG:mode>RGB</xmpG:mode>
                           <xmpG:red>35</xmpG:red>
                           <xmpG:green>31</xmpG:green>
                           <xmpG:blue>31</xmpG:blue>
                        </rdf:li>
                        <rdf:li rdf:parseType="Resource">
                           <xmpG:swatchName>R=0 G=102 B=51</xmpG:swatchName>
                           <xmpG:type>PROCESS</xmpG:type>
                           <xmpG:tint>100.000000</xmpG:tint>
                           <xmpG:mode>RGB</xmpG:mode>
                           <xmpG:red>0</xmpG:red>
                           <xmpG:green>102</xmpG:green>
                           <xmpG:blue>51</xmpG:blue>
                        </rdf:li>
                        <rdf:li rdf:parseType="Resource">
                           <xmpG:swatchName>R=0 G=158 B=229</xmpG:swatchName>
                           <xmpG:type>PROCESS</xmpG:type>
                           <xmpG:tint>100.000000</xmpG:tint>
                           <xmpG:mode>RGB</xmpG:mode>
                           <xmpG:red>0</xmpG:red>
                           <xmpG:green>158</xmpG:green>
                           <xmpG:blue>228</xmpG:blue>
                        </rdf:li>
                        <rdf:li rdf:parseType="Resource">
                           <xmpG:swatchName>R=29 G=29 B=27 1</xmpG:swatchName>
                           <xmpG:mode>RGB</xmpG:mode>
                           <xmpG:type>PROCESS</xmpG:type>
                           <xmpG:red>29</xmpG:red>
                           <xmpG:green>29</xmpG:green>
                           <xmpG:blue>27</xmpG:blue>
                        </rdf:li>
                     </rdf:Seq>
                  </xmpG:Colorants>
               </rdf:li>
            </rdf:Seq>
         </xmpTPg:SwatchGroups>
         <pdf:Producer>Adobe PDF library 10.01</pdf:Producer>
      </rdf:Description>
   </rdf:RDF>
</x:xmpmeta>
                                                                                                    
                                                                                                    
                                                                                                    
                                                                                                    
                                                                                                    
                                                                                                    
                                                                                                    
                                                                                                    
                                                                                                    
                                                                                                    
                                                                                                    
                                                                                                    
                                                                                                    
                                                                                                    
                                                                                                    
                                                                                                    
                                                                                                    
                                                                                                    
                                                                                                    
                                                                                                    
                           
<?xpacket end="w"?>
	</metadata>
<g id="Iconos">
	<path class="st6" d="M108.6,269.7v39.8l0,10.6c0,7.1-5.8,12.9-12.8,12.9c-7.1,0-12.9-5.8-12.9-12.9v-18.9v-52.7"/>
	<path class="st6" d="M145.2,210.8v98.7l0,10.6c0,7.1-5.8,12.9-12.8,12.9c-7.1,0-12.9-5.8-12.9-12.9v-18.9v-31.5"/>
	<path class="st6" d="M119.6,269.7L119.6,269.7c0-3-2.5-5.5-5.5-5.5l0,0c-3,0-5.5,2.5-5.5,5.5l0,0"/>
	<polygon class="st5" points="110.8,79.3 102.6,86.9 99.6,96.8 101.6,100.7 114.1,97.4 125.1,92.3 129.4,87.2 130.3,82.4 
		129.6,78.2 119.6,76.4 	"/>
	<path class="st6" d="M140.2,112.6c0.3,5.2-1.4,10.4-4.9,14.3c-3.5,3.9-8.4,6.3-13.6,6.7c-10.9,0.7-20.3-7.6-21-18.5l-1.1-17.7
		c-0.7-10.9,7.6-20.3,18.5-21c10.9-0.7,20.3,7.6,21,18.5L140.2,112.6z"/>
	<path class="st6" d="M132.5,81.3c0,0-0.3,12.6-32.6,19.7"/>
	<path class="st5" d="M154.3,141.6c2.6,5.4,3.8,11.5,3.4,17.7c-0.6,9.1-4.7,17.3-11.4,23.4l0.2,27.7c20.1-9.6,33.7-28.3,35.2-49.4
		c0.8-11.7-1.8-23.2-7.4-33.2L154.3,141.6z"/>
	<polygon class="st3" points="89.5,151 80.1,152.4 69,164 67.7,171.4 67.9,192.2 68.4,226.2 90.1,226 	"/>
	<path class="st11" d="M90.8,182.7l0.4,39.6l0.1,9.9c0.1,6.6-5.2,12-11.8,12.1c-6.6,0.1-12-5.2-12.1-11.8l-0.2-17.5l-0.4-43.4
		c-0.1-11.3,8.9-20.5,20.2-20.6l5.2-0.1c0.4,0,25.6-0.3,25.6-0.3"/>
	<g>
		<path class="st11" d="M146.3,182.6c6.7-6.1,10.8-14.3,11.4-23.4c0.7-9.3-2.3-18.3-8.4-25.3c-3.5-4.1-3.8-9.8-1.1-14.2
			c0.6-1,1.4-1.9,2.3-2.8c5-4.3,12.6-3.8,16.9,1.2c10.3,11.9,15.4,27.1,14.2,42.8c-1.5,21.1-15.1,39.7-35.2,49.4"/>
	</g>
	<g>
		<line class="st6" x1="252.2" y1="240.4" x2="298.6" y2="240.4"/>
		<path class="st5" d="M289.1,80.1c6.9,3.2,13.3,9.2,12.3,16.4c-1.2,8.5-15.7,2.3-20,0.3c-5.2-2.5-12.7-7.1-11.9-13.8
			c0.7-5.8,7.2-6,11.5-5.4C283.5,77.9,286.4,78.8,289.1,80.1z"/>
		<path class="st6" d="M281.4,136.7c11.4,0,20.7-9.3,20.4-20.8"/>
		<path class="st6" d="M301.8,115.9l0.1-17.7c0-11.3-9.1-20.4-20.3-20.5c-11.3,0-20.4,9-20.5,20.3l-0.1,18.2
			c0,11.3,9.1,20.4,20.3,20.5h0"/>
		<path class="st6" d="M267.2,83.7c0,0,1.1,12.9,34.7,18.3"/>
		<polygon class="st3" points="308,231.5 308,146.5 317.4,147.8 324,155.4 328.7,159.4 330,166.8 330,187.7 330,221.9 309.1,221.9 
			309.1,231.5 		"/>
		<path class="st6" d="M307,178.4v39.8l0,9.9c0,6.6,5.4,12,12,12c6.6,0,12-5.4,12-12v-17.6v-43.6c0-11.3-9.2-20.5-20.5-20.5h-5.3
			c-0.4,0-10.6,0-10.6,0"/>
		<path class="st6" d="M253.2,240.2c-6.6,0-12-5.4-12-12v-17.6v-43.6c0-11.3,9.2-20.5,20.5-20.5h11.9"/>
		<line class="st6" x1="253.1" y1="267.4" x2="253.1" y2="206.9"/>
		<g>
			<path class="st6" d="M290.8,267.9v41l-0.1,10.9c0,7.3,5.9,13.2,13.2,13.2c7.3,0,13.2-5.9,13.2-13.2v-19.4v-60"/>
			<path class="st6" d="M253.1,190.1v118.8l-0.1,10.9c0,7.3,5.9,13.2,13.2,13.2c7.3,0,13.2-5.9,13.2-13.2v-19.4v-32.5"/>
		</g>
		<path class="st6" d="M279.5,268L279.5,268c0-3.1,2.5-5.7,5.7-5.7l0,0c3.1,0,5.6,2.5,5.6,5.7l0,0"/>
	</g>
	<path class="st13" d="M272.1,122.2c0,2.3,1.9,4.2,4.2,4.2l0,0c2.3,0,4.2-1.9,4.2-4.2v-4c0-2.3-1.9-4.2-4.2-4.2l0,0
		c-2.3,0-4.2,1.9-4.2,4.2V122.2z"/>
	<g>
		
			<ellipse transform="matrix(0.3446 -0.9387 0.9387 0.3446 41.9726 291.1394)" class="st3" cx="229.5" cy="115.5" rx="6.3" ry="6.3"/>
		
			<ellipse transform="matrix(0.3446 -0.9387 0.9387 0.3446 32.8146 278.0218)" class="st3" cx="215.5" cy="115.5" rx="4.8" ry="4.8"/>
		<ellipse transform="matrix(0.3446 -0.9387 0.9387 0.3446 24.7598 266.4843)" class="st3" cx="203.2" cy="115.5" rx="3" ry="3"/>
		
			<ellipse transform="matrix(0.3446 -0.9387 0.9387 0.3446 19.2909 258.6509)" class="st3" cx="194.9" cy="115.5" rx="1.3" ry="1.3"/>
	</g>
	<g>
		
			<ellipse transform="matrix(0.6385 -0.7696 0.7696 0.6385 -20.8908 223.9284)" class="st3" cx="227.9" cy="134.2" rx="6.3" ry="6.3"/>
		
			<ellipse transform="matrix(0.6385 -0.7696 0.7696 0.6385 -22.0575 212.1046)" class="st3" cx="214.8" cy="129.5" rx="4.8" ry="4.8"/>
		<ellipse transform="matrix(0.6385 -0.7696 0.7696 0.6385 -23.0836 201.7051)" class="st3" cx="203.2" cy="125.4" rx="3" ry="3"/>
		
			<ellipse transform="matrix(0.6385 -0.7696 0.7696 0.6385 -23.7803 194.6444)" class="st3" cx="195.3" cy="122.6" rx="1.3" ry="1.3"/>
	</g>
	<g>
		
			<ellipse transform="matrix(0.7696 -0.6385 0.6385 0.7696 -9.8946 167.7538)" class="st3" cx="227.5" cy="97.6" rx="6.3" ry="6.3"/>
		
			<ellipse transform="matrix(0.7696 -0.6385 0.6385 0.7696 -15.911 160.4202)" class="st3" cx="214.3" cy="102.3" rx="4.8" ry="4.8"/>
		<ellipse transform="matrix(0.7696 -0.6385 0.6385 0.7696 -21.2026 153.9699)" class="st3" cx="202.8" cy="106.4" rx="3" ry="3"/>
		
			<ellipse transform="matrix(0.7696 -0.6385 0.6385 0.7696 -24.7954 149.5906)" class="st3" cx="194.9" cy="109.2" rx="1.3" ry="1.3"/>
	</g>
</g>
<g id="Guías" class="st18">
</g>
</svg>
