<?xml version="1.0" encoding="utf-8"?>
<!-- Generator: Adobe Illustrator 21.0.2, SVG Export Plug-In . SVG Version: 6.00 Build 0)  -->
<svg version="1.1" id="Layer_1" xmlns="http://www.w3.org/2000/svg" xmlns:xlink="http://www.w3.org/1999/xlink" x="0px" y="0px"
	 width="400px" height="400px" viewBox="0 0 400 400" style="enable-background:new 0 0 400 400;" xml:space="preserve">
<style type="text/css">
	.st0{fill:#D9E8E0;}
	.st1{fill:none;stroke:#232323;stroke-width:6;stroke-linecap:round;stroke-linejoin:round;stroke-miterlimit:10;}
	.st2{fill:#FDFFFE;stroke:#232323;stroke-width:6;stroke-linecap:round;stroke-linejoin:round;stroke-miterlimit:10;}
	.st3{fill:#8CBAA3;}
	
		.st4{fill:none;stroke:#8CBAA3;stroke-width:6;stroke-linecap:round;stroke-linejoin:round;stroke-miterlimit:10;stroke-dasharray:12;}
	.st5{fill:none;stroke:#8CBAA3;stroke-width:6;stroke-linecap:round;stroke-linejoin:round;}
	.st6{fill:none;stroke:#8CBAA3;stroke-width:6;stroke-linecap:round;stroke-linejoin:round;stroke-dasharray:12.1667,12.1667;}
	.st7{fill:#009EE5;}
	.st8{fill:none;stroke:#8CBAA3;stroke-width:6;stroke-linecap:round;stroke-linejoin:round;stroke-dasharray:11.8102,11.8102;}
	.st9{fill:none;stroke:#8CBAA3;stroke-width:6;stroke-linecap:round;stroke-linejoin:round;stroke-dasharray:11.779,11.779;}
	.st10{fill:none;stroke:#8CBAA3;stroke-width:6;stroke-linecap:round;stroke-linejoin:round;stroke-dasharray:9.2511,9.2511;}
	.st11{fill:none;stroke:#8AB9A1;stroke-width:6;stroke-linecap:round;stroke-linejoin:round;stroke-miterlimit:10;}
	.st12{fill:none;stroke:#009EE5;stroke-width:6;stroke-miterlimit:10;}
	.st13{fill:none;stroke:#8CBAA3;stroke-width:6;stroke-linecap:round;stroke-linejoin:round;stroke-miterlimit:10;}
	.st14{fill:#FFFFFF;}
	.st15{fill:none;stroke:#232323;stroke-width:6.4642;stroke-linecap:round;stroke-linejoin:round;stroke-miterlimit:10;}
	.st16{fill:#8CBAA3;stroke:#232323;stroke-width:6;stroke-linecap:round;stroke-linejoin:round;stroke-miterlimit:10;}
	.st17{fill:none;stroke:#009EE5;stroke-width:6;stroke-linecap:round;stroke-linejoin:round;stroke-miterlimit:10;}
	.st18{fill:#009EE5;stroke:#232323;stroke-width:6;stroke-linecap:round;stroke-linejoin:round;stroke-miterlimit:10;}
	.st19{fill:#FFFFFF;stroke:#232323;stroke-width:6;stroke-linecap:round;stroke-linejoin:round;stroke-miterlimit:10;}
	.st20{fill:none;stroke:#232323;stroke-width:5.9319;stroke-linecap:round;stroke-linejoin:round;stroke-miterlimit:10;}
	.st21{fill:none;}
	.st22{fill:none;stroke:#231F20;stroke-width:6;stroke-linecap:round;stroke-linejoin:round;stroke-miterlimit:10;}
	.st23{fill:#232323;}
	.st24{fill:#0093D2;}
	.st25{fill:none;stroke:#222222;stroke-width:6;stroke-linecap:round;stroke-linejoin:round;stroke-miterlimit:10;}
	.st26{fill:#90B9A5;}
	.st27{fill:none;stroke:#231F20;stroke-width:6;stroke-miterlimit:10;}
	.st28{fill:none;stroke:#282828;stroke-width:6;stroke-linecap:round;stroke-linejoin:round;stroke-miterlimit:10;}
	.st29{fill:#8CBAA3;stroke:#282828;stroke-width:6;stroke-linecap:round;stroke-linejoin:round;stroke-miterlimit:10;}
</style>
<path class="st3" d="M253.4,199c-3.2-2.5-7,2.8-11.1-2.8c-4.1-5.7,6-3.8,6.6-9.8c1.8-17.2-32.2-36-60.1-17.1
	c-9.8,6.6-14.5-1.9-14.5-2.8l-6.3,9.5c0,0,4.7,1.1,8,4.4c2.4,2.4-0.4,8.3-0.4,8.3s-3.8,7.9-6,21.2c-1.1,6.7,0.3,13.2,4,18.9
	c3.4,5.4,10.8,10.5,11.4,17.2c3,12.3,1,34.7,1,34.7l4.5-1.4l4.2,1.4c0,0,0.2-0.8,0.5-2.2v-21c0-1.7,1.4-3.1,3.1-3.1
	c1.7,0,3.1,1.4,3.1,3.1v23.5l11.1,2c0,0-0.1-12.2-0.1-23.4c0-11.2-20.6-19.6-23.8-22.8c-3.2-3.2-5.2-3.2-4.6-8.3
	c0.6-5.1,4.1-2.2,5.4-1.6c1.3,0.6,2.5,4.4,5.4,3.5c2.8-0.9,0-4.7,0-4.7s-2.7-1.5-2.2-4.4c0.3-1.6,2.3-3.8,3.5-4.9
	c3.9-3.4,9.2-4.3,14.2-4.5c4.7-0.1,9.8,0,14.4,1.2c2.1,0.5,5,1.8,6.2,3.7c1.2,1.9,0.9,5.5-1.2,6.7c-1.8,1-3.6,2-3.8,4.3
	c-0.2,1.7,0.7,3.4,2.4,4.1c3,1.2,6.2-1.8,6.2-4.9c0-0.9,0.2-2,0.6-2.8c0.4-1,1-1.9,1.6-2.7c0.7-0.9,1.4-1.7,2.2-2.5
	c0.8-0.8,1.7-1.4,2.7-2c0.7-0.4,1.3-0.8,2-1.2c0.4-0.3,0.8-0.5,1-1c0.1-0.4,0.1-1,0-1.4c-0.1-0.2-0.2-0.5-0.4-0.7
	c-0.2-0.2-0.4-0.4-0.6-0.5c-0.9-0.5-1.9-0.2-2.7,0.4c-0.6,0.4-1,0.9-1.4,1.3c-0.1,0.1-0.2,0.2-0.3,0.2c-0.8,0.7-1.7,1.5-2.7,1.8
	c-0.3,0.1-0.8,0-1.1-0.3c-2.6-3.2-6.2-6.6-10.2-7.7c-7.1-2.1-12.7-2.7-20-1c-3.3,0.8-9,3.5-12,5.2c-2.6,1.5-4.9,4.3-8.1,4.4
	c-2.6,0.1-4.8-1.8-4.3-4.4c0.4-2.5,2.2-5.4,3.7-7.4c9.5-12.6,22.7-9,28.4-7.8s19.6,7.3,24.9,5.4c5.4-1.9,7.6,1.6,13,2.5
	C256.2,205.6,256.5,201.5,253.4,199z"/>
<g id="Layer_2">
</g>
<path class="st1" d="M177.5,261.3c-17.4-8.2-29.6-25.6-30.2-45.9"/>
<path class="st1" d="M252.7,213.5c0.1,21.5-13.5,37.8-29.1,46.3"/>
<path class="st1" d="M147.2,215.4l-0.1-49.2c-0.1-28.7,23.2-52.1,51.9-52.2l1.3,0c27.2-0.1,49.7,20.7,52,47.4
	c0.3,3.3,1.2,6.5,2.6,9.5l7.3,15.6c1.5,3.2,1.3,7-0.6,10.1c-1.9,3-5.3,4.9-8.8,4.9"/>
<line class="st1" x1="223.6" y1="261.3" x2="223.6" y2="289.5"/>
<line class="st1" x1="177.5" y1="261.3" x2="177.5" y2="286.5"/>
<path class="st1" d="M162.8,303c6.3-13.3,19.8-22.4,35.5-22.4h0.3c15.7,0,29.3,9.2,35.7,22.4"/>
<circle class="st7" cx="184.5" cy="220.6" r="27.7"/>
</svg>
