<?xml version="1.0" encoding="utf-8"?>
<!-- Generator: Adobe Illustrator 22.0.0, SVG Export Plug-In . SVG Version: 6.00 Build 0)  -->
<svg version="1.1" id="Layer_1" xmlns="http://www.w3.org/2000/svg" xmlns:xlink="http://www.w3.org/1999/xlink" x="0px" y="0px"
	 viewBox="0 0 400 400" style="enable-background:new 0 0 400 400;" xml:space="preserve">
<style type="text/css">
	.st0{fill:#009EE5;}
	.st1{fill:#8CBAA3;}
	.st2{fill:none;stroke:#232323;stroke-width:6;stroke-linecap:round;stroke-linejoin:round;stroke-miterlimit:10;}
	.st3{fill:none;stroke:#231F20;stroke-width:6;stroke-linecap:round;stroke-linejoin:round;stroke-miterlimit:10;}
	.st4{fill:none;stroke:#1E1E1E;stroke-width:6;stroke-linecap:round;stroke-linejoin:round;stroke-miterlimit:10;}
	.st5{fill:#232323;stroke:#232323;stroke-width:2;stroke-miterlimit:10;}
	.st6{fill:#BDBCBC;}
	.st7{fill:#B2E2F7;}
	.st8{fill:#FFFFFF;}
	.st9{fill:none;stroke:#2F2F2F;stroke-width:6;stroke-linecap:round;stroke-linejoin:round;stroke-miterlimit:10;}
	.st10{fill:none;stroke:#009EE5;stroke-width:6;stroke-linecap:round;stroke-linejoin:round;stroke-miterlimit:10;}
	.st11{opacity:0.7;fill:#009EE5;}
	.st12{fill:#8CBAA3;stroke:#232323;stroke-width:6;stroke-linecap:round;stroke-linejoin:round;stroke-miterlimit:10;}
	.st13{fill:none;stroke:#1C1C1B;stroke-width:6;stroke-linecap:round;stroke-linejoin:round;stroke-miterlimit:10;}
	.st14{fill:#009EE5;stroke:#232323;stroke-width:6;stroke-linecap:round;stroke-linejoin:round;stroke-miterlimit:10;}
	.st15{clip-path:url(#SVGID_2_);fill:#242424;}
	.st16{clip-path:url(#SVGID_2_);fill:#8CBAA3;}
	.st17{clip-path:url(#SVGID_4_);fill:#242424;}
	.st18{clip-path:url(#SVGID_4_);fill:#009EE5;}
	.st19{clip-path:url(#SVGID_4_);fill:#FFFFFF;}
	.st20{clip-path:url(#SVGID_6_);fill:#1A171C;}
	.st21{clip-path:url(#SVGID_6_);fill:#009EE5;}
	.st22{clip-path:url(#SVGID_6_);fill:#241F21;}
	.st23{clip-path:url(#SVGID_6_);fill:#242424;}
	.st24{clip-path:url(#SVGID_8_);fill:#1A171C;}
	.st25{clip-path:url(#SVGID_8_);fill:#009EE5;}
	.st26{clip-path:url(#SVGID_8_);fill:#241F21;}
	.st27{clip-path:url(#SVGID_8_);fill:#242424;}
	.st28{fill:#B2E2F7;stroke:#232323;stroke-width:6;stroke-linecap:round;stroke-linejoin:round;stroke-miterlimit:10;}
	.st29{fill:#FFFFFF;stroke:#232323;stroke-width:6;stroke-linecap:round;stroke-linejoin:round;stroke-miterlimit:10;}
	.st30{fill:#242424;}
</style>
<g>
	<polygon class="st1" points="319.1,150.4 315.1,142 304.6,138.6 245.3,138.6 233.4,140.3 226.4,148.4 221.5,152.5 220,160.4 
		220,182.6 220.1,218.9 242.2,218.9 242.2,229.2 296.7,229.2 296.7,219 318.1,219 	"/>
	<polygon class="st0" points="243.4,229 243.4,138.7 233.4,140.1 226.4,148.2 221.5,152.4 220,160.3 220,182.5 220.1,218.8 
		242.2,218.8 242.2,229 	"/>
	<g>
		<path class="st2" d="M320.6,225.4v-75.1c0-6.5-5.2-11.7-11.7-11.7h-8h-7.7"/>
		<polyline class="st2" points="289.5,170.8 295.1,170.8 295.1,225.4 		"/>
	</g>
	<path class="st2" d="M244.4,172.6v42.3l0,10.5c0,7-5.7,12.8-12.8,12.8c-7,0-12.8-5.7-12.8-12.8v-18.7v-46.3
		c0-12,9.8-21.8,21.8-21.8h5.6c0.5,0,18.1,0,18.1,0"/>
	<polygon class="st2" points="254.9,138.6 261.7,158.1 275.9,138.6 289.4,158.1 295.2,138.6 	"/>
	<line class="st2" x1="275.9" y1="138.8" x2="275.9" y2="196.3"/>
	<line class="st2" x1="275.9" y1="229.2" x2="245.9" y2="229.2"/>
	<g>
		<path class="st2" d="M316.6,334.3V263c0-7.6,6.1-13.7,13.7-13.7c7.6,0,13.7,6.1,13.7,13.7"/>
	</g>
	<polygon class="st1" points="251.8,96 260.1,91.2 265.9,82.9 265.7,73.8 264,68.1 257.6,71.5 253.2,77.1 250.7,81.9 	"/>
	<path class="st2" d="M295.2,106c-0.1,12-9.9,21.7-22,21.6c-5.8,0-11.3-2.4-15.3-6.5c-4.1-4.1-6.3-9.7-6.3-15.4l0.2-19.5
		c0.1-12,9.9-21.7,21.9-21.6c5.8,0,11.3,2.4,15.3,6.5c4.1,4.1,6.3,9.7,6.3,15.4L295.2,106z"/>
	<path class="st2" d="M251.7,95.2c9-2.2,15.1-11.1,14-20.9c-0.3-2.6-1.1-5.1-2.3-7.2"/>
	<path class="st2" d="M320.6,225.4c0,7-5.7,12.8-12.8,12.8c-7.1,0-12.8-5.7-12.8-12.8"/>
	<g>
		<path class="st2" d="M261.6,264.6v43.5l0.1,11.6c0,7.8-6.3,14.1-14,14.1c-7.8,0-14.1-6.3-14.1-14.1v-20.6v-59.9"/>
		<path class="st2" d="M301.7,278.3v29.8l0.1,11.6c0,7.8-6.3,14.1-14,14.1c-7.8,0-14.1-6.3-14.1-14.1v-20.6v-34.5"/>
	</g>
	<path class="st2" d="M273.6,264.6L273.6,264.6c0-3.3-2.7-6-6-6l0,0c-3.3,0-6,2.7-6,6l0,0"/>
</g>
<g>
	<path class="st1" d="M72.7,158.9c-1.9-5.1-2.1-10.6-0.9-15.7L54,137.1c-2.6,9.3-2.3,19.1,1.1,28.3c4.5,12.4,14,22.1,26.4,27l0-21.3
		C77.5,167.9,74.5,163.8,72.7,158.9z"/>
	<path class="st2" d="M81.2,171.1c-4-3.1-7-7.2-8.8-12.1c-2.5-6.8-2.2-14.2,0.9-20.9c1.8-3.8,0.8-8.2-2.2-10.9
		c-0.7-0.6-1.5-1.2-2.4-1.6c-4.7-2.2-10.3-0.1-12.5,4.6c-5.2,11.2-5.7,23.7-1.4,35.2c4.5,12.4,14,22.1,26.4,27"/>
	<path class="st2" d="M124.2,146.5c-0.1,10.3-8.5,18.6-18.7,18.5h0c-4.9,0-9.7-2-13.1-5.5c-3.5-3.5-5.4-8.3-5.4-13.2l0.1-10.5
		c0.1-10.3,8.5-18.6,18.7-18.5h0c4.9,0,9.7,2,13.1,5.5c3.5,3.5,5.4,8.3,5.4,13.2L124.2,146.5z"/>
	<path class="st2" d="M81.4,171.4v47.1h2.8c8.2,0,14.8,4.9,14.8,13v1.7h13.6v-1.7c0-8.2,6.6-13,14.8-13h3v-47.1"/>
	<path class="st2" d="M112.7,233.2l8.8,12.8c3.2,4.7,3.4,10.8,0.6,15.7l-3.4,5.8c-2.6,4.5-1.1,10.2,3.4,12.8c2.2,1.3,4.8,1.6,7.3,1
		c2.4-0.7,4.5-2.3,5.7-4.6l10.6-19.5c2.5-4.7,2.4-10.3-0.4-14.9l-14.9-23.9"/>
	<path class="st2" d="M98.8,233.2L90.1,246c-3.2,4.7-3.4,10.8-0.6,15.7l3.4,5.8c2.6,4.5,1.1,10.2-3.4,12.8l0,0
		c-2.2,1.3-4.8,1.6-7.3,1c-2.4-0.7-4.5-2.3-5.7-4.6l-10.6-19.5c-2.5-4.7-2.4-10.3,0.4-14.9l14.9-23.9"/>
	<path class="st2" d="M109.2,152.8c-2-2-5.2-2-7.2,0"/>
	<path class="st2" d="M130.6,171.1c4-3.1,7-7.2,8.8-12.1c2.5-6.8,2.2-14.2-0.9-20.9c-1.8-3.8-0.8-8.2,2.2-10.9
		c0.7-0.6,1.5-1.2,2.4-1.6c4.7-2.2,10.3-0.1,12.5,4.6c5.2,11.2,5.7,23.7,1.4,35.2c-4.5,12.4-14,22.1-26.4,27"/>
</g>
</svg>
