<?xml version="1.0" encoding="utf-8"?>
<!-- Generator: Adobe Illustrator 21.0.2, SVG Export Plug-In . SVG Version: 6.00 Build 0)  -->
<svg version="1.1" id="Layer_1" xmlns="http://www.w3.org/2000/svg" xmlns:xlink="http://www.w3.org/1999/xlink" x="0px" y="0px"
	 width="400px" height="400px" viewBox="0 0 400 400" style="enable-background:new 0 0 400 400;" xml:space="preserve">
<style type="text/css">
	.st0{fill:#8CBAA3;}
	.st1{fill:#009EE5;stroke:#009EE5;stroke-width:2;stroke-miterlimit:10;}
	.st2{fill:#009EE5;}
	.st3{fill:#009EE5;stroke:#231F20;stroke-width:6;stroke-linecap:round;stroke-linejoin:round;stroke-miterlimit:10;}
	.st4{fill:none;stroke:#232323;stroke-width:6;stroke-linecap:round;stroke-linejoin:round;stroke-miterlimit:10;}
	.st5{fill:none;stroke:#222222;stroke-width:6;stroke-linecap:round;stroke-linejoin:round;stroke-miterlimit:10;}
	.st6{fill:#FFFFFF;}
	.st7{fill:none;stroke:#8AB9A1;stroke-width:6;stroke-linecap:round;stroke-linejoin:round;stroke-miterlimit:10;}
	.st8{fill:none;stroke:#009EE5;stroke-width:6;stroke-linecap:round;stroke-linejoin:round;stroke-miterlimit:10;}
	.st9{stroke:#231F20;stroke-width:6;stroke-linecap:round;stroke-linejoin:round;stroke-miterlimit:10;}
	.st10{fill:none;stroke:#231F20;stroke-width:6;stroke-linecap:round;stroke-linejoin:round;stroke-miterlimit:10;}
	.st11{fill:none;stroke:#8CBAA3;stroke-width:6;stroke-linecap:round;stroke-linejoin:round;stroke-miterlimit:10;}
	.st12{fill:url(#SVGID_1_);stroke:#231F20;stroke-width:6;stroke-miterlimit:10;}
	.st13{fill:#8CBAA3;stroke:#231F20;stroke-width:6;stroke-miterlimit:10;}
	.st14{fill:#FFFFFF;stroke:#232323;stroke-width:6;stroke-linecap:round;stroke-linejoin:round;stroke-miterlimit:10;}
	.st15{fill:#DAD9D9;}
	.st16{fill:#FFFFFF;stroke:#231F20;stroke-width:6;stroke-miterlimit:10;}
	.st17{fill:#FFFFFF;stroke:#231F20;stroke-width:4.846;stroke-linecap:round;stroke-linejoin:round;stroke-miterlimit:10;}
	.st18{fill:none;stroke:#231F20;stroke-width:6;stroke-miterlimit:10;}
	.st19{fill:none;stroke:#252122;stroke-width:6;stroke-linecap:round;stroke-linejoin:round;stroke-miterlimit:10;}
	.st20{fill:#8CBAA3;stroke:#231F20;stroke-width:6;stroke-linecap:round;stroke-linejoin:round;stroke-miterlimit:10;}
	.st21{fill:#BDBCBC;}
	.st22{fill:none;stroke:#000000;stroke-width:6;stroke-linecap:round;stroke-linejoin:round;stroke-miterlimit:10;}
	.st23{fill:none;stroke:#1E1E1E;stroke-width:6;stroke-linecap:round;stroke-linejoin:round;stroke-miterlimit:10;}
	.st24{fill:#8CBAA3;stroke:#1E1E1E;stroke-width:6;stroke-linecap:round;stroke-linejoin:round;stroke-miterlimit:10;}
	
		.st25{fill:none;stroke:#8CBAA3;stroke-width:6;stroke-linecap:round;stroke-linejoin:round;stroke-miterlimit:10;stroke-dasharray:12;}
	.st26{fill:#8CBAA3;stroke:#232323;stroke-width:6;stroke-linecap:round;stroke-linejoin:round;stroke-miterlimit:10;}
	.st27{fill:#009EE5;stroke:#232323;stroke-width:6;stroke-linecap:round;stroke-linejoin:round;stroke-miterlimit:10;}
	.st28{fill:none;stroke:#282828;stroke-width:6;stroke-linecap:round;stroke-linejoin:round;stroke-miterlimit:10;}
	.st29{fill:none;stroke:#282828;stroke-width:5.6034;stroke-linecap:round;stroke-linejoin:round;stroke-miterlimit:10;}
	.st30{fill:#231F20;stroke:#231F20;stroke-width:1.5;stroke-miterlimit:10;}
	.st31{fill:none;}
	.st32{fill:#231F20;stroke:#231F20;stroke-width:3;stroke-miterlimit:10;}
	.st33{fill:#1D1D1B;stroke:#1D1D1B;stroke-width:2.8;stroke-miterlimit:10;}
</style>
<g>
	<linearGradient id="SVGID_1_" gradientUnits="userSpaceOnUse" x1="198.2432" y1="191.7133" x2="198.2432" y2="78.4154">
		<stop  offset="0" style="stop-color:#FFFFFF"/>
		<stop  offset="1" style="stop-color:#009EE5"/>
	</linearGradient>
	<path class="st12" d="M159.3,171.7c0.6,21,18.1,38,39.2,37.9v0c16.2-0.1,38.9-15.2,38.8-39.1l-0.1-35.2
		c-0.1-21.2-17.4-38.4-38.6-38.3l-0.9,0c-21.2,0.1-38.4,17.3-38.3,38.5l0.1,36.4"/>
</g>
<path class="st0" d="M161.2,135.7c0-21.3,16.4-36.5,37.7-36.5h0.1c9.6,0,16.9,3.1,24.1,9.6l1.6,0.8l-0.4,0.8c-1,3-4.2,8.9-13.4,15.2
	c-11.1,7.6-27.5,13.3-48.8,17l-0.9,0L161.2,135.7z"/>
<path class="st13" d="M225.4,106.8c0,0-2.7,26.1-66.9,36.4"/>
<path class="st0" d="M276.6,274.5c-19.1-5.6-30.1-15.8-38.2-41.2l-38.8,8.8c5.8,25.4,21.1,47,43.1,60.9"/>
<path class="st2" d="M120.8,274.5c19.1-5.6,30.1-15.8,38.2-41.2l38.8,8.8c-5.8,25.4-21.1,47-43.1,60.9"/>
<path class="st5" d="M120.8,274.5c19.1-5.6,30.1-15.8,38.2-41.2c2.7-8.5,9.4-14.7,17.8-15.4c2-0.2,4,0,6,0.4
	c10.7,2.4,17.4,13.1,15,23.8c-5.8,25.4-21.1,47-43.1,60.9"/>
<path class="st5" d="M151.9,191.6c-17.5,0-31.8,14.2-31.8,31.8v37.1"/>
<path class="st5" d="M276.9,274.5c-19.1-5.6-30.1-15.8-38.2-41.2c-2.7-8.5-9.4-14.7-17.8-15.4c-2-0.2-4,0-6,0.4
	c-10.7,2.4-17.4,13.1-15,23.8c5.8,25.4,21.1,47,43.1,60.9"/>
<path class="st5" d="M246.3,191.6c17.5,0,31.8,14.2,31.8,31.8V262"/>
<path class="st4" d="M206.3,189.5c0,3.7-3,6.7-6.7,6.7l0,0c-3.7,0-6.7-3-6.7-6.7v-6.4c0-3.7,3-6.7,6.7-6.7l0,0c3.7,0,6.7,3,6.7,6.7
	V189.5z"/>
<path class="st14" d="M168,153.4c0,6-3.9,9.5-8.7,9.5c-4.8,0-8.7-3.5-8.7-9.5c0-6,8.7-18.3,8.7-18.3S168,147.4,168,153.4z"/>
</svg>
