<?xml version="1.0" encoding="utf-8"?>
<!-- Generator: Adobe Illustrator 21.0.2, SVG Export Plug-In . SVG Version: 6.00 Build 0)  -->
<svg version="1.1" id="Layer_1" xmlns="http://www.w3.org/2000/svg" xmlns:xlink="http://www.w3.org/1999/xlink" x="0px" y="0px"
	 width="400px" height="400px" viewBox="0 0 400 400" style="enable-background:new 0 0 400 400;" xml:space="preserve">
<style type="text/css">
	.st0{fill:#009EE5;}
	.st1{fill:#8CBAA3;}
	.st2{fill:#B2D1C2;}
	.st3{fill:none;stroke:#232323;stroke-width:6;stroke-linecap:round;stroke-linejoin:round;stroke-miterlimit:10;}
	.st4{fill:#D9E8E0;}
	.st5{fill:#B2E2F7;}
	.st6{fill:#B2E2F7;stroke:#232323;stroke-width:6;stroke-linecap:round;stroke-linejoin:round;stroke-miterlimit:10;}
	.st7{fill:none;stroke:#009EE5;stroke-width:6;stroke-miterlimit:10;}
	.st8{fill:none;stroke:#8CBAA3;stroke-width:6;stroke-linecap:round;stroke-linejoin:round;stroke-miterlimit:10;}
	.st9{fill:#009EE5;stroke:#232323;stroke-width:6;stroke-linecap:round;stroke-linejoin:round;stroke-miterlimit:10;}
	.st10{fill:#FFFFFF;stroke:#232323;stroke-width:6;stroke-linecap:round;stroke-linejoin:round;stroke-miterlimit:10;}
	.st11{fill:none;stroke:#009EE5;stroke-width:6;stroke-linecap:round;stroke-linejoin:round;stroke-miterlimit:10;}
	.st12{fill:none;stroke:#B2D1C2;stroke-width:6;stroke-linecap:round;stroke-linejoin:round;stroke-miterlimit:10;}
	.st13{fill:#8CBAA3;stroke:#232323;stroke-width:6;stroke-linecap:round;stroke-linejoin:round;stroke-miterlimit:10;}
	.st14{fill:#232323;}
</style>
<path class="st3" d="M156.6,97h-13.7c-5.3,0-10.2,2.5-13.4,6.6c-3.2,4.2-4.3,9.6-2.9,14.7l21.6,79.8c1.9,7,8.2,11.8,15.4,11.8
	c8.8,0,16,7.2,16,16v72.3c0,8.8,7.1,15.9,15.9,15.9s15.9-7.1,15.9-15.9v-11.3c0-4.5,1.8-8.8,5-12l30-30"/>
<path class="st3" d="M202.8,97.2h13.7c5.3,0,10.2,2.5,13.4,6.6c3.2,4.2,4.3,9.6,2.9,14.7l-21.6,79.8c-1.9,7-8.2,11.8-15.4,11.8
	c-8.8,0-16,7.2-16,16"/>
<circle class="st9" cx="262.1" cy="233.5" r="17.7"/>
<circle class="st10" cx="261.8" cy="233.5" r="6.9"/>
<circle class="st13" cx="165.4" cy="97" r="8.2"/>
<circle class="st13" cx="194.5" cy="97" r="8.2"/>
<line class="st3" x1="147.2" y1="194.2" x2="212.2" y2="194.2"/>
</svg>
