<?xml version="1.0" encoding="utf-8"?>
<!-- Generator: Adobe Illustrator 19.0.0, SVG Export Plug-In . SVG Version: 6.00 Build 0)  -->
<svg version="1.1" id="Capa_1" xmlns="http://www.w3.org/2000/svg" xmlns:xlink="http://www.w3.org/1999/xlink" x="0px" y="0px"
	 viewBox="-105 197 400 400" style="enable-background:new -105 197 400 400;" xml:space="preserve">
<style type="text/css">
	.st0{fill:none;stroke:#232323;stroke-width:6;stroke-linecap:round;stroke-linejoin:round;stroke-miterlimit:10;}
	.st1{fill:#FFFFFF;stroke:#232323;stroke-width:6;stroke-linecap:round;stroke-linejoin:round;stroke-miterlimit:10;}
	.st2{fill:#8CBAA3;stroke:#232323;stroke-width:6;stroke-linecap:round;stroke-linejoin:round;stroke-miterlimit:10;}
	.st3{fill:#009EE5;stroke:#232323;stroke-width:6;stroke-linecap:round;stroke-linejoin:round;stroke-miterlimit:10;}
</style>
<line class="st0" x1="62.9" y1="490.3" x2="62.9" y2="528.5"/>
<line class="st0" x1="132.1" y1="490.3" x2="132.1" y2="528.5"/>
<path class="st0" d="M152.4,461.2v-62.3c0-6.3-5.1-11.4-11.4-11.4c-6.3,0-11.4,5.1-11.4,11.4v-9.8c0-6.3-5.1-11.4-11.4-11.4
	c-6.3,0-11.4,5.1-11.4,11.4V389c0-6.3-5.1-11.4-11.4-11.4c-6.3,0-11.4,5.1-11.4,11.4v-55.3c0-6.3-5.1-11.4-11.4-11.4
	c-6.3,0-11.4,5.1-11.4,11.4v77c0-6.3-5.1-11.4-11.4-11.4c-6.3,0-11.4,5.1-11.4,11.4v50.5c0,0-0.1,29.1,29.1,29.1"/>
<path class="st0" d="M148.8,475.8c-3.6,7.3-10.9,14.6-25.5,14.6"/>
<line class="st0" x1="61" y1="410.6" x2="61" y2="438.9"/>
<line class="st0" x1="83.8" y1="349.7" x2="83.8" y2="405.8"/>
<line class="st0" x1="106.7" y1="389.1" x2="106.7" y2="405.8"/>
<path class="st1" d="M92.8,361.6c3.1,0,5.6-2.5,5.6-5.6v-84.1c0-3.1-2.5-5.6-5.6-5.6h-43c-3.1,0-5.6,2.5-5.6,5.6V356
	c0,3.1,2.5,5.6,5.6,5.6H92.8z"/>
<g>
	<rect x="54" y="284.2" class="st2" width="34.5" height="31.4"/>
	<polygon class="st3" points="77.7,331.7 90.8,339.3 77.7,346.9 	"/>
	<polygon class="st2" points="66.1,346.9 53,339.3 66.1,331.7 	"/>
</g>
</svg>
