<?xml version="1.0" encoding="utf-8"?>
<!-- Generator: Adobe Illustrator 21.0.2, SVG Export Plug-In . SVG Version: 6.00 Build 0)  -->
<svg version="1.1" id="Layer_1" xmlns="http://www.w3.org/2000/svg" xmlns:xlink="http://www.w3.org/1999/xlink" x="0px" y="0px"
	 width="400px" height="400px" viewBox="0 0 400 400" style="enable-background:new 0 0 400 400;" xml:space="preserve">
<style type="text/css">
	.st0{fill:#009EE5;}
	.st1{fill:#8CBAA3;}
	.st2{fill:#009EE5;stroke:#232323;stroke-width:6;stroke-linecap:round;stroke-linejoin:round;stroke-miterlimit:10;}
	.st3{fill:none;stroke:#232323;stroke-width:6;stroke-linecap:round;stroke-linejoin:round;stroke-miterlimit:10;}
	.st4{fill:none;stroke:#009EE5;stroke-width:6;stroke-linecap:round;stroke-linejoin:round;stroke-miterlimit:10;}
	.st5{fill:#8CBAA3;stroke:#1E1E1E;stroke-width:6;stroke-linecap:round;stroke-linejoin:round;stroke-miterlimit:10;}
	.st6{fill:none;stroke:#1E1E1E;stroke-width:6;stroke-linecap:round;stroke-linejoin:round;stroke-miterlimit:10;}
	.st7{fill:none;stroke:#8CBAA3;stroke-width:6;stroke-linecap:round;stroke-linejoin:round;stroke-miterlimit:10;}
	.st8{fill:none;stroke:#8AB9A1;stroke-width:6;stroke-linecap:round;stroke-linejoin:round;stroke-miterlimit:10;}
	.st9{fill:#FFFFFF;stroke:#232323;stroke-width:6;stroke-linecap:round;stroke-linejoin:round;stroke-miterlimit:10;}
	.st10{fill:#FFFFFF;}
	.st11{fill:#009EE5;stroke:#1E1E1E;stroke-width:6;stroke-linecap:round;stroke-linejoin:round;stroke-miterlimit:10;}
	.st12{fill:none;stroke:#A7A5A6;stroke-width:6;stroke-linecap:round;stroke-linejoin:round;stroke-miterlimit:10;}
	.st13{fill:none;stroke:#FFFFFF;stroke-width:6;stroke-linecap:round;stroke-linejoin:round;stroke-miterlimit:10;}
	.st14{fill:none;stroke:#231F20;stroke-width:6;stroke-linecap:round;stroke-linejoin:round;stroke-miterlimit:10;}
	.st15{fill:#FFFFFF;stroke:#1E1E1E;stroke-width:6;stroke-linecap:round;stroke-linejoin:round;stroke-miterlimit:10;}
	.st16{fill:none;stroke:#B2D1C2;stroke-width:6;stroke-linecap:round;stroke-linejoin:round;stroke-miterlimit:10;}
	.st17{fill:#231F20;stroke:#231F20;stroke-width:1.5;stroke-miterlimit:10;}
	.st18{fill:none;stroke:#1E1E1E;stroke-width:5.9319;stroke-linecap:round;stroke-linejoin:round;stroke-miterlimit:10;}
	.st19{opacity:0.5;}
	.st20{fill:#87B79F;stroke:#1E1E1E;stroke-width:6;stroke-linecap:round;stroke-linejoin:round;stroke-miterlimit:10;}
	.st21{fill:none;stroke:#232323;stroke-width:5;stroke-linecap:round;stroke-linejoin:round;stroke-miterlimit:10;}
	.st22{fill:#8CBAA3;stroke:#232323;stroke-width:6;stroke-linecap:round;stroke-linejoin:round;stroke-miterlimit:10;}
	.st23{fill:#009EE5;stroke:#1F191A;stroke-width:6;stroke-linecap:round;stroke-linejoin:round;stroke-miterlimit:10;}
	.st24{fill:none;stroke:#1F191A;stroke-width:6;stroke-linecap:round;stroke-linejoin:round;stroke-miterlimit:10;}
	.st25{fill:#232323;}
	.st26{fill:#232323;stroke:#232323;stroke-width:2;stroke-miterlimit:10;}
</style>
<path class="st1" d="M99,127c0-7.5,2.9-14.5,8.2-19.8c9.8-9.8,25.1-10.8,36.1-3l-39.1,39.1C100.9,138.6,99,133,99,127z"/>
<path class="st0" d="M299.1,299c-5.3,5.3-13.8,5.5-18.9,0.4l-13.8-13.8l19.4-19.4l13.8,13.8C304.6,285.2,304.4,293.7,299.1,299z"/>
<path class="st3" d="M299.1,299.1c5.4-5.4,5.4-14,0-19.4l-26.2-26.2c-2.7-2.7-2.7-7,0-9.7c2.7-2.7,2.7-7,0-9.7L143.8,105
	c-10.7-10.7-28.1-10.7-38.8,0c-5.1,5.1-8,12.1-8,19.4c0,7.3,2.9,14.2,8,19.4l129.1,129.1c2.7,2.7,7,2.7,9.7,0c2.7-2.7,7-2.7,9.7,0
	l26.2,26.2c2.6,2.6,6.1,4,9.7,4C293,303.1,296.5,301.6,299.1,299.1z"/>
<line class="st3" x1="266.4" y1="285.7" x2="285.7" y2="266.3"/>
<line class="st3" x1="276" y1="276" x2="142.6" y2="142.6"/>
<line class="st3" x1="123.2" y1="162" x2="132.9" y2="152.3"/>
<line class="st3" x1="133.9" y1="172.6" x2="140.5" y2="166"/>
<line class="st3" x1="144.5" y1="183.3" x2="154.2" y2="173.6"/>
<line class="st3" x1="155.1" y1="193.9" x2="161.8" y2="187.3"/>
<line class="st3" x1="165.8" y1="204.5" x2="175.5" y2="194.9"/>
<line class="st3" x1="176.4" y1="215.2" x2="183" y2="208.6"/>
<line class="st3" x1="187" y1="225.8" x2="196.7" y2="216.1"/>
<line class="st3" x1="197.7" y1="236.4" x2="204.3" y2="229.8"/>
<line class="st3" x1="208.3" y1="247.1" x2="218" y2="237.4"/>
<line class="st3" x1="218.9" y1="257.7" x2="225.6" y2="251.1"/>
<line class="st3" x1="124" y1="123.5" x2="143.2" y2="104.4"/>
<polygon class="st3" points="295.9,63.7 255.5,132.7 336.3,132.7 "/>
<line class="st3" x1="296.2" y1="87.5" x2="296.2" y2="112.4"/>
<circle class="st25" cx="296.2" cy="122.7" r="2.8"/>
</svg>
