<?xml version="1.0" encoding="utf-8"?>
<!-- Generator: Adobe Illustrator 21.0.2, SVG Export Plug-In . SVG Version: 6.00 Build 0)  -->
<svg version="1.1" id="Layer_1" xmlns="http://www.w3.org/2000/svg" xmlns:xlink="http://www.w3.org/1999/xlink" x="0px" y="0px"
	 width="400px" height="400px" viewBox="0 0 400 400" style="enable-background:new 0 0 400 400;" xml:space="preserve">
<style type="text/css">
	.st0{opacity:0.5;fill:#8AB9A1;}
	.st1{fill:#009EE5;}
	.st2{fill:#8CBAA3;}
	.st3{fill:none;stroke:#232323;stroke-width:6;stroke-linecap:round;stroke-linejoin:round;stroke-miterlimit:10;}
	.st4{fill:#8CBAA3;stroke:#232323;stroke-width:6;stroke-linecap:round;stroke-linejoin:round;stroke-miterlimit:10;}
	.st5{fill:none;stroke:#1E1E1E;stroke-width:6;stroke-linecap:round;stroke-linejoin:round;stroke-miterlimit:10;}
	.st6{fill:none;stroke:#1E1E1E;stroke-width:5.9319;stroke-linecap:round;stroke-linejoin:round;stroke-miterlimit:10;}
	.st7{fill:#FFFFFF;stroke:#1E1E1E;stroke-width:6;stroke-linecap:round;stroke-linejoin:round;stroke-miterlimit:10;}
	.st8{fill:#8CBAA3;stroke:#1E1E1E;stroke-width:6;stroke-linecap:round;stroke-linejoin:round;stroke-miterlimit:10;}
	.st9{fill:#009EE5;stroke:#1E1E1E;stroke-width:6;stroke-linecap:round;stroke-linejoin:round;stroke-miterlimit:10;}
	.st10{fill:#232323;}
	.st11{fill:none;stroke:#8AB9A1;stroke-width:6;stroke-linecap:round;stroke-linejoin:round;stroke-miterlimit:10;}
	.st12{fill:none;stroke:#1E1E1E;stroke-width:5.6618;stroke-linecap:round;stroke-linejoin:round;stroke-miterlimit:10;}
	.st13{fill:none;stroke:#1E1E1E;stroke-width:6.0966;stroke-linecap:round;stroke-linejoin:round;stroke-miterlimit:10;}
	.st14{fill:#FFFFFF;}
	.st15{fill:none;stroke:#231F20;stroke-width:6;stroke-linecap:round;stroke-linejoin:round;stroke-miterlimit:10;}
	.st16{fill:url(#SVGID_1_);stroke:#231F20;stroke-width:6;stroke-miterlimit:10;}
	.st17{fill:#8CBAA3;stroke:#231F20;stroke-width:6;stroke-miterlimit:10;}
	.st18{fill:#CCE0D6;}
	.st19{fill:none;stroke:#222222;stroke-width:6;stroke-linecap:round;stroke-linejoin:round;stroke-miterlimit:10;}
	.st20{fill:#FFFFFF;stroke:#232323;stroke-width:6;stroke-linecap:round;stroke-linejoin:round;stroke-miterlimit:10;}
	.st21{fill:none;stroke:#232323;stroke-width:5;stroke-linecap:round;stroke-linejoin:round;stroke-miterlimit:10;}
	.st22{fill:url(#SVGID_2_);stroke:#231F20;stroke-width:6;stroke-miterlimit:10;}
	.st23{fill:none;stroke:#009EE5;stroke-width:6;stroke-linecap:round;stroke-linejoin:round;stroke-miterlimit:10;}
	.st24{fill:#B2E2F7;}
	.st25{fill:none;stroke:#282828;stroke-width:6;stroke-linecap:round;stroke-linejoin:round;stroke-miterlimit:10;}
	.st26{fill:#009EE5;stroke:#232323;stroke-width:6;stroke-linecap:round;stroke-linejoin:round;stroke-miterlimit:10;}
	.st27{fill:none;stroke:#282828;stroke-width:5;stroke-linecap:round;stroke-linejoin:round;stroke-miterlimit:10;}
	.st28{fill:#FFFFFF;stroke:#282828;stroke-width:6;stroke-linecap:round;stroke-linejoin:round;stroke-miterlimit:10;}
	.st29{fill:none;stroke:#252122;stroke-width:6;stroke-linecap:round;stroke-linejoin:round;stroke-miterlimit:10;}
	.st30{fill:#99D8F5;}
	.st31{fill:none;stroke:#009EE5;stroke-width:6;stroke-miterlimit:10;}
	.st32{fill:#8AB9A1;stroke:#232323;stroke-width:6;stroke-linecap:round;stroke-linejoin:round;stroke-miterlimit:10;}
</style>
<g>
	<g>
		<g>
			<linearGradient id="SVGID_1_" gradientUnits="userSpaceOnUse" x1="198.3409" y1="198.251" x2="198.3409" y2="44.9369">
				<stop  offset="0" style="stop-color:#FFFFFF"/>
				<stop  offset="1" style="stop-color:#009EE5"/>
			</linearGradient>
			<path class="st16" d="M145.6,171.2c0.9,28.4,24.4,51.4,53,51.3v0c21.9-0.1,52.6-20.6,52.5-52.8l-0.2-47.7
				c-0.1-28.8-23.5-52-52.3-51.9l-1.3,0c-28.7,0.1-51.9,23.4-51.9,52.2l0.1,49.2"/>
		</g>
		<path class="st2" d="M148.3,122.4c-0.1-28.9,22.1-49.4,51-49.5h0.2c13,0,22.9,4.2,32.6,12.9l2.2,1l-0.6,1.1
			c-1.4,4-5.7,12.1-18.1,20.6c-15,10.3-37.3,18-66.1,23l-1.3,0L148.3,122.4z"/>
		<path class="st17" d="M235.1,83.4c0,0-3.7,35.3-90.5,49.2"/>
	</g>
	<g>
		<path class="st18" d="M298.1,296.8c-24.4-7.1-38.5-20.1-48.9-52.6l-49.5,11.2c7.4,32.4,26.9,60.1,55.1,77.8"/>
	</g>
	<g>
		<path class="st1" d="M99.1,296.8c24.4-7.1,38.5-20.1,48.9-52.6l49.5,11.2c-7.4,32.4-26.9,60.1-55.1,77.8"/>
	</g>
	<g>
		<path class="st19" d="M99.1,296.8c24.4-7.1,38.5-20.1,48.9-52.6c3.5-10.8,12-18.8,22.7-19.7c2.5-0.2,5.1,0,7.6,0.5
			c13.7,3.1,22.2,16.7,19.1,30.4c-7.4,32.4-26.9,60.1-55.1,77.8"/>
	</g>
	<g>
		<path class="st19" d="M138.8,190.9c-22.4,0-40.6,18.2-40.6,40.6v68l0.9-2.7"/>
	</g>
	<g>
		<path class="st19" d="M298.5,296.8c-24.4-7.1-38.5-20.1-48.8-52.6c-3.5-10.8-12-18.8-22.7-19.7c-2.5-0.2-5.1,0-7.6,0.5
			c-13.7,3.1-22.2,16.7-19.1,30.4c7.4,32.4,26.9,60.1,55.1,77.8"/>
	</g>
	<g>
		<path class="st19" d="M259.4,190.9c22.4,0,40.6,18.2,40.6,40.6v68l0,0"/>
	</g>
	<path class="st3" d="M215.5,195.2c0,5-4,9-9,9l0,0c-5,0-9-4-9-9v-8.6c0-5,4-9,9-9l0,0c5,0,9,4,9,9V195.2z"/>
</g>
<path class="st20" d="M175.2,154.4c0,4.4-2.9,7-6.4,7c-3.6,0-6.4-2.6-6.4-7c0-4.4,6.4-13.5,6.4-13.5S175.2,150,175.2,154.4z"/>
<path class="st20" d="M160.5,135.8c0,4.4-2.9,7-6.4,7c-3.6,0-6.4-2.6-6.4-7s6.4-13.5,6.4-13.5S160.5,131.4,160.5,135.8z"/>
</svg>
