<?xml version="1.0" encoding="utf-8"?>
<!-- Generator: Adobe Illustrator 21.0.2, SVG Export Plug-In . SVG Version: 6.00 Build 0)  -->
<svg version="1.1" id="Layer_1" xmlns="http://www.w3.org/2000/svg" xmlns:xlink="http://www.w3.org/1999/xlink" x="0px" y="0px"
	 width="400px" height="400px" viewBox="0 0 400 400" style="enable-background:new 0 0 400 400;" xml:space="preserve">
<style type="text/css">
	.st0{fill:#8CBAA3;}
	.st1{fill:none;stroke:#232323;stroke-width:6;stroke-linecap:round;stroke-linejoin:round;stroke-miterlimit:10;}
	.st2{fill:#FF0000;stroke:#232323;stroke-width:6;stroke-linecap:round;stroke-linejoin:round;stroke-miterlimit:10;}
	.st3{fill:#8CBAA3;stroke:#232323;stroke-width:6;stroke-linecap:round;stroke-linejoin:round;stroke-miterlimit:10;}
	.st4{fill:#231F20;}
	.st5{fill:#FFFFFF;stroke:#232323;stroke-width:6;stroke-linecap:round;stroke-linejoin:round;stroke-miterlimit:10;}
	.st6{fill:#009EE5;stroke:#232323;stroke-width:6;stroke-linecap:round;stroke-linejoin:round;stroke-miterlimit:10;}
	.st7{fill:#009EE5;}
	.st8{opacity:0.4;}
	.st9{fill:none;stroke:#8CBAA3;stroke-width:6;stroke-linecap:round;stroke-linejoin:round;stroke-miterlimit:10;}
	.st10{fill:none;stroke:#009EE5;stroke-width:6;stroke-linecap:round;stroke-linejoin:round;stroke-miterlimit:10;}
	.st11{fill:none;stroke:#8CBAA3;stroke-width:6;stroke-linecap:round;stroke-linejoin:round;}
	.st12{fill:none;stroke:#8CBAA3;stroke-width:6;stroke-linecap:round;stroke-linejoin:round;stroke-dasharray:11.2375,11.2375;}
	
		.st13{fill:none;stroke:#8CBAA3;stroke-width:6;stroke-linecap:round;stroke-linejoin:round;stroke-miterlimit:10;stroke-dasharray:12;}
	.st14{fill:none;stroke:#231F20;stroke-width:6;stroke-linecap:round;stroke-linejoin:round;stroke-miterlimit:10;}
	.st15{fill:none;stroke:#8AB9A1;stroke-width:6;stroke-linecap:round;stroke-linejoin:round;stroke-miterlimit:10;}
	.st16{fill:none;stroke:#282828;stroke-width:6;stroke-linecap:round;stroke-linejoin:round;stroke-miterlimit:10;}
	.st17{fill:#282828;}
	.st18{fill:none;stroke:#FFFFFF;stroke-width:6;stroke-linecap:round;stroke-linejoin:round;stroke-miterlimit:10;}
</style>
<g id="Layer_2">
</g>
<path class="st7" d="M155.9,197c-2.8-5.9-4-12.5-3.5-19.2c0.8-9.8,5.3-18.7,12.6-25.2l0.1-30c-21.9,10.2-36.8,30.3-38.6,53.1
	c-1,12.7,1.7,25.1,7.7,36L155.9,197z"/>
<g>
	<path class="st1" d="M194.2,256.1l-0.1,40.2l0.1,11.8c0,7.9-6.4,14.3-14.3,14.3c-7.9,0-14.3-6.4-14.3-14.3v-20.9V152.6"/>
	<path class="st1" d="M234.9,187.8v108.5l0.1,11.8c0,7.9-6.4,14.3-14.3,14.3c-7.9,0-14.3-6.4-14.3-14.3v-20.9v-31.9"/>
</g>
<g>
	<path class="st1" d="M242.6,162c2.8,4.8,4.5,10.2,4.9,15.9c0.8,10.1-2.3,19.8-8.9,27.5c-3.8,4.4-4,10.7-1.1,15.4
		c0.7,1.1,1.5,2.1,2.6,3c5.5,4.7,13.7,4,18.3-1.5c11-13,16.3-29.5,15-46.5c-2-24-18.4-45-42.1-54.6"/>
</g>
<g>
	<path class="st1" d="M165.6,152.6c-7.3,6.5-11.8,15.4-12.6,25.2c-0.8,10.1,2.3,19.8,8.9,27.5c3.8,4.4,4,10.7,1.1,15.4
		c-0.7,1.1-1.5,2.1-2.6,3c-5.5,4.7-13.7,4-18.3-1.5c-11-13-16.3-29.5-15-46.5c1.3-16.3,9.3-31.2,21.7-42.1"/>
</g>
<path class="st5" d="M231.7,118.5c0,5.7-3.8,9.1-8.4,9.1c-4.6,0-8.4-3.4-8.4-9.1c0-5.7,8.4-17.6,8.4-17.6S231.7,112.8,231.7,118.5z"
	/>
<polygon class="st0" points="192.9,80.4 183.4,88.3 179.4,99.1 181.4,103.5 195.5,100.7 208,95.7 213.1,90.5 214.4,85.2 213.8,80.4 
	202.9,77.8 "/>
<path class="st1" d="M201.5,141.3c-6.4,0-12.2-2.7-16.2-7.1"/>
<path class="st1" d="M215.8,135.9c-3.8,3.3-8.8,5.4-14.3,5.4h0"/>
<path class="st1" d="M179.4,115.9l-0.1-16.1c0-12.1,9.8-22,21.9-22.1c11.7,0,21.3,9,22,20.5"/>
<path class="st1" d="M216.8,84.1c0,0-1.2,13.9-37.4,19.7"/>
<path class="st1" d="M179.4,115.9c0,11-8,20.1-18.6,21.8"/>
<path class="st1" d="M179.4,103.5c0,11-8,20.1-18.6,21.8"/>
<line class="st1" x1="227.1" y1="254.8" x2="165.7" y2="254.8"/>
<g>
	<path class="st1" d="M197.3,166.5c0,5.8-4.7,10.6-10.6,10.6c-5.8,0-10.6-4.7-10.6-10.6"/>
	<path class="st1" d="M227.8,166.5c0,5.8-4.7,10.6-10.6,10.6c-5.8,0-10.6-4.7-10.6-10.6"/>
	<line class="st1" x1="197.3" y1="166.5" x2="197.3" y2="164.2"/>
	<line class="st1" x1="176.1" y1="166.5" x2="176.1" y2="164.2"/>
	<line class="st1" x1="227.8" y1="166.5" x2="227.8" y2="164.2"/>
	<line class="st1" x1="206.7" y1="166.5" x2="206.7" y2="164.2"/>
</g>
</svg>
