<?xml version="1.0" encoding="utf-8"?>
<!-- Generator: Adobe Illustrator 21.0.2, SVG Export Plug-In . SVG Version: 6.00 Build 0)  -->
<svg version="1.1" id="Layer_1" xmlns="http://www.w3.org/2000/svg" xmlns:xlink="http://www.w3.org/1999/xlink" x="0px" y="0px"
	 width="400px" height="400px" viewBox="0 0 400 400" style="enable-background:new 0 0 400 400;" xml:space="preserve">
<style type="text/css">
	.st0{fill:#8CBAA3;}
	.st1{fill:#009EE5;stroke:#009EE5;stroke-width:2;stroke-miterlimit:10;}
	.st2{fill:#009EE5;}
	.st3{fill:#009EE5;stroke:#231F20;stroke-width:6;stroke-linecap:round;stroke-linejoin:round;stroke-miterlimit:10;}
	.st4{fill:none;stroke:#232323;stroke-width:6;stroke-linecap:round;stroke-linejoin:round;stroke-miterlimit:10;}
	.st5{fill:none;stroke:#222222;stroke-width:6;stroke-linecap:round;stroke-linejoin:round;stroke-miterlimit:10;}
	.st6{fill:#FFFFFF;}
	.st7{fill:none;stroke:#8AB9A1;stroke-width:6;stroke-linecap:round;stroke-linejoin:round;stroke-miterlimit:10;}
	.st8{fill:none;stroke:#009EE5;stroke-width:6;stroke-linecap:round;stroke-linejoin:round;stroke-miterlimit:10;}
	.st9{stroke:#231F20;stroke-width:6;stroke-linecap:round;stroke-linejoin:round;stroke-miterlimit:10;}
	.st10{fill:none;stroke:#231F20;stroke-width:6;stroke-linecap:round;stroke-linejoin:round;stroke-miterlimit:10;}
	.st11{fill:none;stroke:#8CBAA3;stroke-width:6;stroke-linecap:round;stroke-linejoin:round;stroke-miterlimit:10;}
	.st12{fill:url(#SVGID_1_);stroke:#231F20;stroke-width:6;stroke-miterlimit:10;}
	.st13{fill:#8CBAA3;stroke:#231F20;stroke-width:6;stroke-miterlimit:10;}
	.st14{fill:#FFFFFF;stroke:#232323;stroke-width:6;stroke-linecap:round;stroke-linejoin:round;stroke-miterlimit:10;}
	.st15{fill:#DAD9D9;}
	.st16{fill:#FFFFFF;stroke:#231F20;stroke-width:6;stroke-miterlimit:10;}
	.st17{fill:#FFFFFF;stroke:#231F20;stroke-width:4.846;stroke-linecap:round;stroke-linejoin:round;stroke-miterlimit:10;}
	.st18{fill:none;stroke:#231F20;stroke-width:6;stroke-miterlimit:10;}
	.st19{fill:none;stroke:#252122;stroke-width:6;stroke-linecap:round;stroke-linejoin:round;stroke-miterlimit:10;}
	.st20{fill:#8CBAA3;stroke:#231F20;stroke-width:6;stroke-linecap:round;stroke-linejoin:round;stroke-miterlimit:10;}
	.st21{fill:#BDBCBC;}
	.st22{fill:none;stroke:#000000;stroke-width:6;stroke-linecap:round;stroke-linejoin:round;stroke-miterlimit:10;}
	.st23{fill:none;stroke:#1E1E1E;stroke-width:6;stroke-linecap:round;stroke-linejoin:round;stroke-miterlimit:10;}
	.st24{fill:#8CBAA3;stroke:#1E1E1E;stroke-width:6;stroke-linecap:round;stroke-linejoin:round;stroke-miterlimit:10;}
	
		.st25{fill:none;stroke:#8CBAA3;stroke-width:6;stroke-linecap:round;stroke-linejoin:round;stroke-miterlimit:10;stroke-dasharray:12;}
	.st26{fill:#8CBAA3;stroke:#232323;stroke-width:6;stroke-linecap:round;stroke-linejoin:round;stroke-miterlimit:10;}
	.st27{fill:#009EE5;stroke:#232323;stroke-width:6;stroke-linecap:round;stroke-linejoin:round;stroke-miterlimit:10;}
	.st28{fill:none;stroke:#282828;stroke-width:6;stroke-linecap:round;stroke-linejoin:round;stroke-miterlimit:10;}
	.st29{fill:none;stroke:#282828;stroke-width:5.6034;stroke-linecap:round;stroke-linejoin:round;stroke-miterlimit:10;}
	.st30{fill:#231F20;stroke:#231F20;stroke-width:1.5;stroke-miterlimit:10;}
	.st31{fill:none;}
	.st32{fill:#231F20;stroke:#231F20;stroke-width:3;stroke-miterlimit:10;}
	.st33{fill:#1D1D1B;stroke:#1D1D1B;stroke-width:2.8;stroke-miterlimit:10;}
</style>
<g>
	<path class="st15" d="M176.6,218.5c0,0,24.2,8.8,23.2,33.8c-1,26.6-6.1,30-8.5,29.9c-2.4,0-19-9.6-22.2-10.6
		c-3.2-1-7.7-5.5-3.1-8.9c4.5-3.5,2.8-9.7,2.3-12.6c-0.5-2.9-4.1-7.3,1.6-13.5C175.7,230.3,171.8,216.4,176.6,218.5z"/>
	<path class="st15" d="M130.2,228.6c-2,2.5,0,0-2.1,3c-10.5,15.2-15.9,27.8-13.6,29c2.3,1.2,29.4,3.8,33.7-0.2
		c4.4-3.9,1.8-5.8,5.5-9.4c3.7-3.6,9.4-11.8,7.3-15.1c-2.1-3.3-3-10.9-0.6-13.4c2.3-2.4,4.1-9.3-4.3-8.2c0,0-5.8,0.7-12.7,4.1"/>
</g>
<polyline class="st11" points="178,189.8 165.8,229.1 173.4,236.4 "/>
<line class="st11" x1="154.9" y1="231.7" x2="165.8" y2="229.1"/>
<path class="st2" d="M103.4,217.1l33.6,8.1c0,0-7.7,19.8-3.9,29.8c3.9,10,8.1,14.3,18.9,17l-10,35.1c0,0-43.2-11.2-44.4-44.8
	C96.4,228.7,103.4,217.1,103.4,217.1z"/>
<path class="st16" d="M214.3,176.1c-2.6,3.5-7.6,4.2-11.1,1.6l0,0c-3.5-2.6-4.2-7.6-1.6-11.1l4.6-6.1c2.6-3.5,7.6-4.2,11.1-1.6l0,0
	c3.5,2.6,4.2,7.6,1.6,11.1L214.3,176.1z"/>
<polygon class="st0" points="224.1,97.6 206.9,99.3 193.9,108.9 192.8,115.6 211.4,123.1 229.8,127 239.9,124.8 245.5,119.7 
	248.5,113.7 237.8,102.2 "/>
<path class="st4" d="M229.6,166.4c-4.5,6.8-11.5,11.6-19.5,13.2c-8,1.7-16.3,0.1-23.1-4.4c-14.2-9.3-18.1-28.4-8.8-42.6l15.1-23
	c9.3-14.2,28.4-18.1,42.6-8.8c14.2,9.3,18.1,28.4,8.8,42.6L229.6,166.4z"/>
<path class="st4" d="M249.2,120.3c0,0-12.1,15.3-58.9-6"/>
<path class="st4" d="M101.5,221l5-20.1c4.1-16.6,20.9-26.7,37.5-22.5l7.7,1.9c0.6,0.2,15.5,3.9,15.5,3.9"/>
<path class="st4" d="M134.9,227.7c-0.9,3.7-9.2,37,8.6,41.5l17.6,4.4"/>
<path class="st4" d="M161.1,273.6c9.7,2.4,15.6,12.3,13.2,22c-2.4,9.7-12.2,15.6-22,13.1"/>
<path class="st4" d="M152.3,308.7l-18.3-4.6c-27.7-6.9-44.4-35.6-32.5-83.1"/>
<g>
	<line class="st5" x1="340.8" y1="249.3" x2="296.4" y2="234.5"/>
	<line class="st5" x1="305" y1="293.7" x2="281.1" y2="253.6"/>
	<line class="st5" x1="288.8" y1="244" x2="311.7" y2="262.5"/>
</g>
<g>
	<path class="st5" d="M215.7,247.3c14.2-10.7,20.1-22.7,18.8-46.4c-0.4-7.9,3.1-15.2,9.9-18.5c1.6-0.8,3.3-1.3,5.1-1.5
		c9.7-1.4,18.6,5.4,20,15c3.3,23-2.6,45.8-16.6,64.4c-18.7,24.9-35,31-49.1,35.7"/>
</g>
<path class="st5" d="M215.7,247.3l4.4-17.6c4.1-16.6-6-33.4-22.5-37.5l-7.7-1.9c3.2,0.8,1.6,0.4,1.6,0.4"/>
<path class="st17" d="M234.5,200.9c0,0,24.9,8.6,34.1,12.3c4.5,1.8,19.1,8.7,19.1,8.7l-4.8-14l6.4-2.6c0,0-9.1-10.7-13-13.9
	c-2.1-1.8-20.6-20-36.1-7C235.1,188.5,234.5,200.9,234.5,200.9z"/>
<g>
	<path class="st11" d="M261.9,200.4c2.1,1.7,2.4,4.7,0.8,6.8"/>
	<path class="st11" d="M261.9,200.4c-2.1-1.7-2.4-4.7-0.8-6.8"/>
</g>
<g>
	<path class="st11" d="M187.1,257c2.1,1.7,2.4,4.7,0.8,6.8"/>
	<path class="st11" d="M187.1,257c-2.1-1.7-2.4-4.7-0.8-6.8"/>
</g>
<g>
	<path class="st11" d="M247.8,187.7c0.5-2.6,3-4.3,5.6-3.8"/>
	<path class="st11" d="M247.8,187.7c-0.5,2.6-3,4.3-5.6,3.8"/>
</g>
<g>
	<path class="st11" d="M184.2,240.2c0.5-2.6,3-4.3,5.6-3.8"/>
	<path class="st11" d="M184.2,240.2c-0.5,2.6-3,4.3-5.6,3.8"/>
</g>
</svg>
