<?xml version="1.0" encoding="utf-8"?>
<!-- Generator: Adobe Illustrator 21.0.2, SVG Export Plug-In . SVG Version: 6.00 Build 0)  -->
<svg version="1.1" id="Layer_1" xmlns="http://www.w3.org/2000/svg" xmlns:xlink="http://www.w3.org/1999/xlink" x="0px" y="0px"
	 width="397.6px" height="400px" viewBox="0 0 397.6 400" style="enable-background:new 0 0 397.6 400;" xml:space="preserve">
<style type="text/css">
	.st0{opacity:0.5;fill:#8AB9A1;}
	.st1{fill:#009EE5;}
	.st2{fill:#8CBAA3;}
	.st3{fill:none;stroke:#232323;stroke-width:6;stroke-linecap:round;stroke-linejoin:round;stroke-miterlimit:10;}
	.st4{fill:#8CBAA3;stroke:#232323;stroke-width:6;stroke-linecap:round;stroke-linejoin:round;stroke-miterlimit:10;}
	.st5{fill:none;stroke:#1E1E1E;stroke-width:6;stroke-linecap:round;stroke-linejoin:round;stroke-miterlimit:10;}
	.st6{fill:none;stroke:#1E1E1E;stroke-width:5.9319;stroke-linecap:round;stroke-linejoin:round;stroke-miterlimit:10;}
	.st7{fill:#FFFFFF;stroke:#1E1E1E;stroke-width:6;stroke-linecap:round;stroke-linejoin:round;stroke-miterlimit:10;}
	.st8{fill:#8CBAA3;stroke:#1E1E1E;stroke-width:6;stroke-linecap:round;stroke-linejoin:round;stroke-miterlimit:10;}
	.st9{fill:#009EE5;stroke:#1E1E1E;stroke-width:6;stroke-linecap:round;stroke-linejoin:round;stroke-miterlimit:10;}
	.st10{fill:#232323;}
	.st11{fill:none;stroke:#8AB9A1;stroke-width:6;stroke-linecap:round;stroke-linejoin:round;stroke-miterlimit:10;}
	.st12{fill:none;stroke:#1E1E1E;stroke-width:5.6618;stroke-linecap:round;stroke-linejoin:round;stroke-miterlimit:10;}
	.st13{fill:none;stroke:#1E1E1E;stroke-width:6.0966;stroke-linecap:round;stroke-linejoin:round;stroke-miterlimit:10;}
	.st14{fill:#FFFFFF;}
	.st15{fill:none;stroke:#231F20;stroke-width:6;stroke-linecap:round;stroke-linejoin:round;stroke-miterlimit:10;}
	.st16{fill:url(#SVGID_1_);stroke:#231F20;stroke-width:6;stroke-miterlimit:10;}
	.st17{fill:#8CBAA3;stroke:#231F20;stroke-width:6;stroke-miterlimit:10;}
	.st18{fill:#CCE0D6;}
	.st19{fill:none;stroke:#222222;stroke-width:6;stroke-linecap:round;stroke-linejoin:round;stroke-miterlimit:10;}
	.st20{fill:#FFFFFF;stroke:#232323;stroke-width:6;stroke-linecap:round;stroke-linejoin:round;stroke-miterlimit:10;}
	.st21{fill:none;stroke:#232323;stroke-width:5;stroke-linecap:round;stroke-linejoin:round;stroke-miterlimit:10;}
	.st22{fill:url(#SVGID_2_);stroke:#231F20;stroke-width:6;stroke-miterlimit:10;}
	.st23{fill:none;stroke:#009EE5;stroke-width:6;stroke-linecap:round;stroke-linejoin:round;stroke-miterlimit:10;}
	.st24{fill:#B2E2F7;}
	.st25{fill:none;stroke:#282828;stroke-width:6;stroke-linecap:round;stroke-linejoin:round;stroke-miterlimit:10;}
	.st26{fill:#009EE5;stroke:#232323;stroke-width:6;stroke-linecap:round;stroke-linejoin:round;stroke-miterlimit:10;}
	.st27{fill:none;stroke:#282828;stroke-width:5;stroke-linecap:round;stroke-linejoin:round;stroke-miterlimit:10;}
	.st28{fill:#FFFFFF;stroke:#282828;stroke-width:6;stroke-linecap:round;stroke-linejoin:round;stroke-miterlimit:10;}
	.st29{fill:none;stroke:#252122;stroke-width:6;stroke-linecap:round;stroke-linejoin:round;stroke-miterlimit:10;}
	.st30{fill:#99D8F5;}
	.st31{fill:none;stroke:#009EE5;stroke-width:6;stroke-miterlimit:10;}
	.st32{fill:#8AB9A1;stroke:#232323;stroke-width:6;stroke-linecap:round;stroke-linejoin:round;stroke-miterlimit:10;}
</style>
<rect x="292.9" y="207.4" class="st2" width="42.9" height="67.7"/>
<path class="st3" d="M161,320.1c0,8.6-7,15.6-15.6,15.6c-8.6,0-15.6-7-15.6-15.6c0-8.6,15.6-31.3,15.6-31.3S161,311.5,161,320.1z"/>
<g>
	<g>
		<line class="st3" x1="157.9" y1="221.8" x2="197.9" y2="221.8"/>
		<line class="st3" x1="196.3" y1="198.5" x2="157.9" y2="198.5"/>
	</g>
	<path class="st3" d="M157.9,221.8c-6.4,0-11.7-5.2-11.7-11.7c0-6.4,5.2-11.7,11.7-11.7"/>
</g>
<line class="st3" x1="192.2" y1="198.5" x2="223.7" y2="198.5"/>
<path class="st3" d="M311.9,207.4h-18.3c-7.5,0-14.5-3.8-18.7-10l-8.2-12.2c-4.2-6.3-11.2-10-18.7-10h-5.8h-41.6"/>
<path class="st3" d="M200.5,198.5c-6.4,0-11.7-5.2-11.7-11.7c0-6.4,5.2-11.7,11.7-11.7"/>
<g>
	<g>
		<path class="st3" d="M180.5,291.8h35.6h16.2c4.7,0,9.4-0.9,13.8-2.6l32.3-12.7c2.3-0.9,4.8-1.4,7.3-1.4h24.9"/>
	</g>
	<path class="st3" d="M180.5,268.4c-6.4,0-11.7,5.2-11.7,11.7c0,6.4,5.2,11.7,11.7,11.7"/>
</g>
<g>
	<g>
		<line class="st3" x1="141.4" y1="245.1" x2="180.5" y2="245.1"/>
		<line class="st3" x1="197.9" y1="221.8" x2="141.4" y2="221.8"/>
	</g>
	<path class="st3" d="M141.4,245.1c-6.4,0-11.7-5.2-11.7-11.7c0-6.4,5.2-11.7,11.7-11.7"/>
</g>
<g>
	<g>
		<line class="st3" x1="154.1" y1="268.4" x2="197.9" y2="268.4"/>
		<line class="st3" x1="194.7" y1="245.1" x2="154.1" y2="245.1"/>
	</g>
	<path class="st3" d="M154.1,268.4c-6.4,0-11.7-5.2-11.7-11.7c0-6.4,5.2-11.7,11.7-11.7"/>
</g>
<path class="st3" d="M188.9,185.9h8.3c5.9,0,10.8-4.8,10.8-10.8"/>
<path class="st3" d="M273.3,195.1c0,0,15.7,27.4-9,41.6"/>
<path class="st3" d="M230.7,215.9c-4.8-1.8-8.2-6.4-8.2-11.8c0-2,0.5-3.9,1.3-5.6"/>
<line class="st3" x1="142.9" y1="236.3" x2="147.8" y2="230.6"/>
<g>
	<path class="st3" d="M118.3,187.9c12.7,0,54.9-5.5,54.9-69.1c0-63.6-37.3-54.9-54.9-54.9s-54.9-8.7-54.9,54.9
		C63.4,182.4,105.6,187.9,118.3,187.9z"/>
	<path class="st3" d="M157.2,120.8c0,7.3-6,13.3-13.3,13.3H92.8c-7.3,0-13.3-6-13.3-13.3v-29c0-7.3,6-13.3,13.3-13.3h51.1
		c7.3,0,13.3,6,13.3,13.3V120.8z"/>
	<circle class="st4" cx="104.5" cy="158.1" r="9.8"/>
	<circle class="st4" cx="133.3" cy="158.1" r="9.8"/>
	<path class="st3" d="M111.1,187.9v28c0,0,6.5,7.9,14.4,0c0-13.8,0-28,0-28"/>
	<line class="st3" x1="118.3" y1="209.3" x2="118.3" y2="219.4"/>
</g>
</svg>
