<?xml version="1.0" encoding="utf-8"?>
<!-- Generator: Adobe Illustrator 21.0.2, SVG Export Plug-In . SVG Version: 6.00 Build 0)  -->
<svg version="1.1" xmlns="http://www.w3.org/2000/svg" xmlns:xlink="http://www.w3.org/1999/xlink" x="0px" y="0px" width="400px"
	 height="400px" viewBox="0 0 400 400" style="enable-background:new 0 0 400 400;" xml:space="preserve">
<style type="text/css">
	.st0{fill:#8CBAA3;}
	.st1{fill:#DAD9D9;}
	.st2{fill:none;stroke:#009EE5;stroke-width:4.8464;stroke-miterlimit:10;}
	.st3{fill:none;stroke:#8CBAA3;stroke-width:6;stroke-linecap:round;stroke-linejoin:round;stroke-miterlimit:10;}
	.st4{fill:#C4E9F9;}
	.st5{fill:#009EE5;}
	.st6{fill:none;stroke:#232323;stroke-width:6;stroke-linecap:round;stroke-linejoin:round;stroke-miterlimit:10;}
	.st7{fill:#8CBAA3;stroke:#231F20;stroke-width:6;stroke-linecap:round;stroke-linejoin:round;stroke-miterlimit:10;}
	.st8{fill:#FFFFFF;stroke:#232323;stroke-width:6;stroke-linecap:round;stroke-linejoin:round;stroke-miterlimit:10;}
	.st9{fill:#009EE5;stroke:#232323;stroke-width:6;stroke-linecap:round;stroke-linejoin:round;stroke-miterlimit:10;}
	.st10{fill:none;stroke:#009EE5;stroke-width:6;stroke-linecap:round;stroke-linejoin:round;stroke-miterlimit:10;}
	.st11{fill:none;stroke:#B2D1C2;stroke-width:6;stroke-linecap:round;stroke-linejoin:round;stroke-miterlimit:10;}
	.st12{fill:#8CBAA3;stroke:#232323;stroke-width:6;stroke-linecap:round;stroke-linejoin:round;stroke-miterlimit:10;}
	.st13{fill:none;stroke:#8AB9A1;stroke-width:6;stroke-linecap:round;stroke-linejoin:round;stroke-miterlimit:10;}
	
		.st14{fill:none;stroke:#8CBAA3;stroke-width:6;stroke-linecap:round;stroke-linejoin:round;stroke-miterlimit:10;stroke-dasharray:12;}
	.st15{fill:none;stroke:#252122;stroke-width:6;stroke-linecap:round;stroke-linejoin:round;stroke-miterlimit:10;}
	.st16{fill:#FFFFFF;}
	.st17{fill:none;stroke:#222222;stroke-width:6;stroke-linecap:round;stroke-linejoin:round;stroke-miterlimit:10;}
	.st18{fill:#FFFFFF;stroke:#231F20;stroke-width:6;stroke-miterlimit:10;}
	.st19{fill:none;stroke:#231F20;stroke-width:6;stroke-linecap:round;stroke-linejoin:round;stroke-miterlimit:10;}
	.st20{fill:#B2E2F7;stroke:#232323;stroke-width:6;stroke-linecap:round;stroke-linejoin:round;stroke-miterlimit:10;}
	.st21{fill:none;stroke:#232323;stroke-width:5.5;stroke-linecap:round;stroke-linejoin:round;stroke-miterlimit:10;}
	.st22{opacity:0.5;}
	.st23{stroke:#231F20;stroke-width:6;stroke-linecap:round;stroke-linejoin:round;stroke-miterlimit:10;}
	.st24{fill:#009EE5;stroke:#231F20;stroke-width:6;stroke-linecap:round;stroke-linejoin:round;stroke-miterlimit:10;}
	.st25{fill:none;stroke:#231F20;stroke-width:6;stroke-miterlimit:10;}
	.st26{fill:#BDBCBC;}
	.st27{fill:none;stroke:#000000;stroke-width:6;stroke-linecap:round;stroke-linejoin:round;stroke-miterlimit:10;}
	.st28{fill:#CCE0D6;}
	.st29{fill:#CCECFA;stroke:#232323;stroke-width:6;stroke-linecap:round;stroke-linejoin:round;stroke-miterlimit:10;}
	.st30{fill:#85B69D;stroke:#232323;stroke-width:6;stroke-linecap:round;stroke-linejoin:round;stroke-miterlimit:10;}
	.st31{fill:none;stroke:#232323;stroke-width:5;stroke-linecap:round;stroke-linejoin:round;stroke-miterlimit:10;}
	.st32{fill:#232323;}
	.st33{fill:none;stroke:#232323;stroke-width:4;stroke-linecap:round;stroke-linejoin:round;stroke-miterlimit:10;}
	.st34{fill:url(#SVGID_1_);stroke:#231F20;stroke-width:6;stroke-miterlimit:10;}
	.st35{fill:#8CBAA3;stroke:#231F20;stroke-width:6;stroke-miterlimit:10;}
	.st36{fill:none;stroke:#FFFFFF;stroke-width:6;stroke-linecap:round;stroke-linejoin:round;stroke-miterlimit:10;}
	.st37{fill:#FFFFFF;stroke:#231F20;stroke-width:4.846;stroke-linecap:round;stroke-linejoin:round;stroke-miterlimit:10;}
	.st38{fill:none;stroke:#009EE5;stroke-width:6;stroke-miterlimit:10;}
	.st39{fill:#009EE5;stroke:#232323;stroke-width:4;stroke-linecap:round;stroke-linejoin:round;stroke-miterlimit:10;}
	.st40{fill:#8CBAA3;stroke:#232323;stroke-width:4;stroke-linecap:round;stroke-linejoin:round;stroke-miterlimit:10;}
	.st41{fill:#FFFFFF;stroke:#232323;stroke-width:4;stroke-linecap:round;stroke-linejoin:round;stroke-miterlimit:10;}
	.st42{fill:#8CBAA3;stroke:#000000;stroke-width:6;stroke-linecap:round;stroke-linejoin:round;stroke-miterlimit:10;}
	.st43{fill:#1A171B;}
</style>
<g id="Layer_1">
	<g id="Layer_2">
	</g>
	<g>
		<path class="st6" d="M258.7,273.2V312l0,10.3c0,6.9-5.6,12.5-12.5,12.5c-6.9,0-12.5-5.6-12.5-12.5v-18.4v-55.4"/>
		<path class="st6" d="M294.4,222.2V312l0,10.3c0,6.9-5.6,12.5-12.5,12.5c-6.9,0-12.5-5.6-12.5-12.5v-18.4v-30.7"/>
		<path class="st6" d="M269.4,273.2L269.4,273.2c0-3-2.4-5.3-5.3-5.3l0,0c-3,0-5.3,2.4-5.3,5.3l0,0"/>
		<polygon class="st0" points="282.6,99 272.4,102.7 266,110.5 266.3,114.7 278.8,116.5 290.6,116.1 296.4,113.2 299,109.2 
			299.9,105.1 291.7,99.7 		"/>
		<path class="st6" d="M301.3,109c0,0-5.1,11.2-36.7,5.3"/>
		<path class="st5" d="M299.5,165.7c2.4,5.3,0.9,11.5,0.4,17.5c-0.7,8.8-1.8-1-8.3,4.9v35.3c19.2-9.2,29.1-23.2,30.7-43.8
			c0.9-11.5,3.3-11.3-2-21.2L299.5,165.7z"/>
		<g>
			<path class="st17" d="M294.1,191.3c7-8.7,8.8-16.8,4.4-31.1c-1.5-4.8-0.4-9.7,3.2-12.7c0.8-0.7,1.8-1.3,2.9-1.7
				c5.7-2.3,12.1,0.4,14.5,6.1c5.5,13.5,5.4,28.3-0.3,41.7c-7.6,18-16.6,24.1-24.4,29.2"/>
		</g>
		<path class="st17" d="M294.1,191.3V180c0-10.7-8.7-19.4-19.4-19.4h-5c2.1,0,1,0,1,0"/>
		<path class="st6" d="M115.5,273.2V312l0,10.3c0,6.9-5.6,12.5-12.5,12.5c-6.9,0-12.5-5.6-12.5-12.5v-18.4v-57.6"/>
		<path class="st6" d="M151.2,222.2V312l0,10.3c0,6.9-5.6,12.5-12.5,12.5c-6.9,0-12.5-5.6-12.5-12.5v-18.4v-30.7"/>
		<path class="st6" d="M126.2,273.2L126.2,273.2c0-3-2.4-5.3-5.3-5.3l0,0c-3,0-5.3,2.4-5.3,5.3l0,0"/>
		<polygon class="st0" points="99.3,160.4 90.4,161.6 84.1,168.8 79.7,172.6 78.4,179.6 78.4,199.4 78.5,212.3 98.2,231.7 		"/>
		<path class="st6" d="M77.5,192.7v-13c0-10.7,8.7-19.4,19.4-19.4h5c0.4,0,10,0,10,0"/>
		<polygon class="st0" points="80.7,211.1 88.6,231 95.7,234.6 107.9,238.9 117.8,238.9 117.8,216.1 106,213.9 101.2,202.9 
			98.8,192.7 90.5,203.7 		"/>
		<polygon class="st16" points="131.7,233 125.6,238.3 116.2,238.3 116.2,216.1 127.1,216.1 131.7,220.9 		"/>
		<path class="st6" d="M98.8,191.7c0,2.4,0,23.9,11.5,23.9h11.4"/>
		<path class="st6" d="M121.7,215.6c6.3,0,11.4,5.1,11.4,11.4c0,6.3-5.1,11.3-11.4,11.3"/>
		<path class="st6" d="M121.7,238.3h-11.8c-17.9,0-32.4-14.9-32.4-45.6"/>
		<path class="st5" d="M156.3,173.3c2.4,5.3,0.9,11.5,0.5,17.5c-0.7,8.8-1.8-1-8.3,4.9V231c19.2-9.2,29.1-23.2,30.7-43.8
			c0.9-11.5,3.3-11.3-2-21.2L156.3,173.3z"/>
		<g>
			<path class="st17" d="M150.9,198.9c7-8.7,8.8-16.8,4.4-31.1c-1.5-4.8-0.4-9.7,3.2-12.7c0.8-0.7,1.8-1.3,2.9-1.7
				c5.7-2.3,12.1,0.4,14.5,6.1c5.5,13.5,5.4,28.3-0.3,41.7c-7.6,18-16.6,24.1-24.4,29.2"/>
		</g>
		<path class="st17" d="M150.9,198v-18c0-10.7-8.7-19.4-19.4-19.4h-5c2.1,0,1,0,1,0"/>
		<path class="st16" d="M288.4,80c0,0,33.1,15.2,18.5,38.8c-14,22.7-38-6.7-54.4,6.7C243.7,132.8,252.6,75.5,288.4,80z"/>
		<g>
			<path class="st6" d="M185.8,113.8c-1-8,1-16.4,6.3-23.3c10.6-13.8,30.4-16.3,44.2-5.7c2.6,2,4.7,4.3,6.5,6.8"/>
			<path class="st6" d="M242.8,91.6c0.8-1.4,1.7-2.7,2.7-4c11.8-15.3,33.7-18.1,49-6.3c9.6,7.4,14.2,18.7,13.5,29.9"/>
			<path class="st6" d="M174,137.4c10.8,16.7,26.8,28.7,49.7,16.4c15.4-8.3,40.4-45.9,60.9-30.1"/>
		</g>
		<path class="st6" d="M239.8,190.5v37.7l0,9.4c0,6.3-5.1,11.4-11.4,11.4c-6.3,0-11.4-5.1-11.4-11.4v-16.7v-41.3
			c0-10.7,8.7-19.4,19.4-19.4h5c0.4,0,16.2,0,16.2,0"/>
		<line class="st6" x1="266.9" y1="233.2" x2="240.2" y2="233.2"/>
		<path class="st16" d="M290.6,140.1c-1.7,4.8-5.2,8.8-9.8,11c-4.6,2.2-9.9,2.5-14.7,0.8c-10-3.5-15.3-14.5-11.8-24.6l5.7-16.3
			c3.5-10.1,14.5-15.3,24.6-11.8c10,3.5,15.3,14.5,11.8,24.6L290.6,140.1z"/>
		<polygon class="st0" points="277.1,99 266.9,102.7 260.4,110.5 260.8,114.7 273.2,116.5 285,116.1 290.8,113.2 293.5,109.2 
			294.4,105.1 286.2,99.7 		"/>
		<path class="st6" d="M290.6,140.1c-1.7,4.8-5.2,8.8-9.8,11c-4.6,2.2-9.9,2.5-14.7,0.8c-10-3.5-15.3-14.5-11.8-24.6l5.7-16.3
			c3.5-10.1,14.5-15.3,24.6-11.8c10,3.5,15.3,14.5,11.8,24.6L290.6,140.1z"/>
		<g id="XMLID_1_">
			<g>
				<path class="st17" d="M295.8,110c0,0-5.1,11.2-36.7,5.3"/>
			</g>
		</g>
		<polygon class="st0" points="111.8,99.9 104.8,108.1 103,118 105.4,121.6 117.1,116.9 127.2,110.8 130.8,105.4 131.1,100.7 
			129.9,96.7 120.1,96 		"/>
		<path class="st6" d="M144.1,128.8c0.9,5-0.2,10.2-3.1,14.4c-2.9,4.2-7.4,7.1-12.4,8c-10.5,1.9-20.5-5.1-22.4-15.6l-3.1-17
			c-1.9-10.5,5.1-20.5,15.6-22.4c10.5-1.9,20.5,5.1,22.4,15.6L144.1,128.8z"/>
		<path class="st6" d="M133.1,99.4c0,0,1.1,12.2-29.4,22.7"/>
	</g>
	<rect x="168.9" y="128.3" class="st33" width="0.6" height="2.1"/>
	<rect x="149.6" y="128.3" class="st33" width="13.8" height="2.1"/>
</g>
<g id="Capa_3">
</g>
</svg>
