<?xml version="1.0" encoding="utf-8"?>
<!-- Generator: Adobe Illustrator 22.0.0, SVG Export Plug-In . SVG Version: 6.00 Build 0)  -->
<svg version="1.1" id="Layer_1" xmlns="http://www.w3.org/2000/svg" xmlns:xlink="http://www.w3.org/1999/xlink" x="0px" y="0px"
	 viewBox="0 0 400 400" style="enable-background:new 0 0 400 400;" xml:space="preserve">
<style type="text/css">
	.st0{fill:#009EE5;}
	.st1{fill:#8CBAA3;}
	.st2{fill:none;stroke:#232323;stroke-width:6;stroke-linecap:round;stroke-linejoin:round;stroke-miterlimit:10;}
	.st3{fill:none;stroke:#231F20;stroke-width:6;stroke-linecap:round;stroke-linejoin:round;stroke-miterlimit:10;}
	.st4{fill:none;stroke:#1E1E1E;stroke-width:6;stroke-linecap:round;stroke-linejoin:round;stroke-miterlimit:10;}
	.st5{fill:#232323;stroke:#232323;stroke-width:2;stroke-miterlimit:10;}
	.st6{fill:#BDBCBC;}
	.st7{fill:#B2E2F7;}
	.st8{fill:#FFFFFF;}
	.st9{fill:none;stroke:#2F2F2F;stroke-width:6;stroke-linecap:round;stroke-linejoin:round;stroke-miterlimit:10;}
	.st10{fill:none;stroke:#009EE5;stroke-width:6;stroke-linecap:round;stroke-linejoin:round;stroke-miterlimit:10;}
	.st11{opacity:0.7;fill:#009EE5;}
	.st12{fill:#8CBAA3;stroke:#232323;stroke-width:6;stroke-linecap:round;stroke-linejoin:round;stroke-miterlimit:10;}
	.st13{fill:none;stroke:#1C1C1B;stroke-width:6;stroke-linecap:round;stroke-linejoin:round;stroke-miterlimit:10;}
	.st14{fill:#009EE5;stroke:#232323;stroke-width:6;stroke-linecap:round;stroke-linejoin:round;stroke-miterlimit:10;}
	.st15{clip-path:url(#SVGID_2_);fill:#242424;}
	.st16{clip-path:url(#SVGID_2_);fill:#8CBAA3;}
	.st17{clip-path:url(#SVGID_4_);fill:#242424;}
	.st18{clip-path:url(#SVGID_4_);fill:#009EE5;}
	.st19{clip-path:url(#SVGID_4_);fill:#FFFFFF;}
	.st20{clip-path:url(#SVGID_6_);fill:#1A171C;}
	.st21{clip-path:url(#SVGID_6_);fill:#009EE5;}
	.st22{clip-path:url(#SVGID_6_);fill:#241F21;}
	.st23{clip-path:url(#SVGID_6_);fill:#242424;}
	.st24{clip-path:url(#SVGID_8_);fill:#1A171C;}
	.st25{clip-path:url(#SVGID_8_);fill:#009EE5;}
	.st26{clip-path:url(#SVGID_8_);fill:#241F21;}
	.st27{clip-path:url(#SVGID_8_);fill:#242424;}
	.st28{fill:#B2E2F7;stroke:#232323;stroke-width:6;stroke-linecap:round;stroke-linejoin:round;stroke-miterlimit:10;}
	.st29{fill:#FFFFFF;stroke:#232323;stroke-width:6;stroke-linecap:round;stroke-linejoin:round;stroke-miterlimit:10;}
	.st30{fill:#242424;}
</style>
<rect x="126.4" y="126.4" transform="matrix(0.7071 -0.7071 0.7071 0.7071 -56.4562 136.301)" class="st0" width="19.8" height="19.8"/>
<polygon class="st1" points="223.5,190 189.9,223.4 224.7,258.2 258.2,224.7 "/>
<rect x="163.4" y="133.3" transform="matrix(0.7071 -0.7071 0.7071 0.7071 -69.9402 168.868)" class="st0" width="11" height="71.1"/>
<polyline class="st2" points="231.7,251.2 224.7,258.2 126.5,160 "/>
<polyline class="st2" points="160.1,126.5 258.2,224.7 251.2,231.7 "/>
<line class="st2" x1="147.4" y1="139.2" x2="180" y2="171.8"/>
<line class="st2" x1="271.5" y1="271.2" x2="304.1" y2="303.8"/>
<polyline class="st2" points="150.3,136.3 160.1,126.5 160.1,126.5 "/>
<line class="st2" x1="147.4" y1="139.2" x2="147.4" y2="139.2"/>
<line class="st2" x1="126.5" y1="160" x2="136.3" y2="150.3"/>
<polygon class="st2" points="251.2,231.7 273.6,268.5 271,271 268.5,273.6 231.7,251.2 "/>
<polyline class="st2" points="189.9,198.1 139.2,147.4 139.2,147.4 "/>
<polyline class="st2" points="184.2,203.7 189.9,198.1 198.1,189.9 203.7,184.2 "/>
<line class="st2" x1="197.5" y1="217" x2="217" y2="197.5"/>
<line class="st2" x1="206.7" y1="226.2" x2="226.2" y2="206.7"/>
<line class="st2" x1="215.9" y1="235.3" x2="235.3" y2="215.9"/>
<polyline class="st2" points="117.5,169.1 126.5,160 139.2,147.4 147.4,139.2 160.1,126.5 169.1,117.5 "/>
<polyline class="st2" points="108.4,122.4 136.3,150.3 139.2,147.4 147.4,139.2 150.3,136.3 122.4,108.4 "/>
<polyline class="st2" points="97,133.8 108.4,122.4 122.4,108.4 133.8,97 "/>
<line class="st2" x1="342.8" y1="52.7" x2="70.2" y2="325.3"/>
</svg>
