<?xml version="1.0" encoding="utf-8"?>
<!-- Generator: Adobe Illustrator 21.0.2, SVG Export Plug-In . SVG Version: 6.00 Build 0)  -->
<svg version="1.1" id="Layer_1" xmlns="http://www.w3.org/2000/svg" xmlns:xlink="http://www.w3.org/1999/xlink" x="0px" y="0px"
	 width="400px" height="400px" viewBox="0 0 400 400" style="enable-background:new 0 0 400 400;" xml:space="preserve">
<style type="text/css">
	.st0{opacity:0.5;fill:#8AB9A1;}
	.st1{fill:#009EE5;}
	.st2{fill:#8CBAA3;}
	.st3{fill:none;stroke:#232323;stroke-width:6;stroke-linecap:round;stroke-linejoin:round;stroke-miterlimit:10;}
	.st4{fill:#8CBAA3;stroke:#232323;stroke-width:6;stroke-linecap:round;stroke-linejoin:round;stroke-miterlimit:10;}
	.st5{fill:none;stroke:#1E1E1E;stroke-width:6;stroke-linecap:round;stroke-linejoin:round;stroke-miterlimit:10;}
	.st6{fill:none;stroke:#1E1E1E;stroke-width:5.9319;stroke-linecap:round;stroke-linejoin:round;stroke-miterlimit:10;}
	.st7{fill:#FFFFFF;stroke:#1E1E1E;stroke-width:6;stroke-linecap:round;stroke-linejoin:round;stroke-miterlimit:10;}
	.st8{fill:#8CBAA3;stroke:#1E1E1E;stroke-width:6;stroke-linecap:round;stroke-linejoin:round;stroke-miterlimit:10;}
	.st9{fill:#009EE5;stroke:#1E1E1E;stroke-width:6;stroke-linecap:round;stroke-linejoin:round;stroke-miterlimit:10;}
	.st10{fill:#232323;}
	.st11{fill:none;stroke:#8AB9A1;stroke-width:6;stroke-linecap:round;stroke-linejoin:round;stroke-miterlimit:10;}
	.st12{fill:none;stroke:#1E1E1E;stroke-width:5.6618;stroke-linecap:round;stroke-linejoin:round;stroke-miterlimit:10;}
	.st13{fill:none;stroke:#1E1E1E;stroke-width:6.0966;stroke-linecap:round;stroke-linejoin:round;stroke-miterlimit:10;}
	.st14{fill:#FFFFFF;}
	.st15{fill:none;stroke:#231F20;stroke-width:6;stroke-linecap:round;stroke-linejoin:round;stroke-miterlimit:10;}
	.st16{fill:url(#SVGID_1_);stroke:#231F20;stroke-width:6;stroke-miterlimit:10;}
	.st17{fill:#8CBAA3;stroke:#231F20;stroke-width:6;stroke-miterlimit:10;}
	.st18{fill:#CCE0D6;}
	.st19{fill:none;stroke:#222222;stroke-width:6;stroke-linecap:round;stroke-linejoin:round;stroke-miterlimit:10;}
	.st20{fill:#FFFFFF;stroke:#232323;stroke-width:6;stroke-linecap:round;stroke-linejoin:round;stroke-miterlimit:10;}
	.st21{fill:none;stroke:#232323;stroke-width:5;stroke-linecap:round;stroke-linejoin:round;stroke-miterlimit:10;}
	.st22{fill:url(#SVGID_2_);stroke:#231F20;stroke-width:6;stroke-miterlimit:10;}
	.st23{fill:none;stroke:#009EE5;stroke-width:6;stroke-linecap:round;stroke-linejoin:round;stroke-miterlimit:10;}
	.st24{fill:#B2E2F7;}
	.st25{fill:none;stroke:#282828;stroke-width:6;stroke-linecap:round;stroke-linejoin:round;stroke-miterlimit:10;}
	.st26{fill:#009EE5;stroke:#232323;stroke-width:6;stroke-linecap:round;stroke-linejoin:round;stroke-miterlimit:10;}
	.st27{fill:none;stroke:#282828;stroke-width:5;stroke-linecap:round;stroke-linejoin:round;stroke-miterlimit:10;}
	.st28{fill:#FFFFFF;stroke:#282828;stroke-width:6;stroke-linecap:round;stroke-linejoin:round;stroke-miterlimit:10;}
	.st29{fill:none;stroke:#252122;stroke-width:6;stroke-linecap:round;stroke-linejoin:round;stroke-miterlimit:10;}
	.st30{fill:#99D8F5;}
	.st31{fill:none;stroke:#009EE5;stroke-width:6;stroke-miterlimit:10;}
	.st32{fill:#8AB9A1;stroke:#232323;stroke-width:6;stroke-linecap:round;stroke-linejoin:round;stroke-miterlimit:10;}
</style>
<rect x="125.7" y="150.8" class="st2" width="148.7" height="88.8"/>
<path class="st5" d="M150.2,151.9c3.1-8.5,11.2-14.5,20.8-14.5h5.7c0.5,0,23.4,0,23.4,0"/>
<path class="st5" d="M252.8,151.9c-3.1-8.5-11.2-14.5-20.8-14.5h-5.7c-0.5,0-6.5,0-6.5,0"/>
<g>
	<path class="st5" d="M192.2,265.4v44.2l0.1,11.8c0,7.9-6.4,14.3-14.3,14.3c-7.9,0-14.3-6.4-14.3-14.3v-20.9v-59.6"/>
	<path class="st5" d="M232.9,240.7v68.8l0.1,11.8c0,7.9-6.4,14.3-14.3,14.3c-7.9,0-14.3-6.4-14.3-14.3v-20.9v-35"/>
</g>
<path class="st5" d="M204.4,265.4L204.4,265.4c0-3.4-2.7-6.1-6.1-6.1l0,0c-3.4,0-6.1,2.7-6.1,6.1l0,0"/>
<polygon class="st1" points="205,65.6 194.5,72.1 189.2,82.4 190.6,87 205,85.9 218,82.6 223.7,78 225.7,72.9 225.7,68.1 
	215.2,64.1 "/>
<path class="st5" d="M230.4,107.9c-1.5,12-12.4,20.6-24.5,19.2h0c-12-1.5-20.6-12.4-19.2-24.5l2.4-19.5c1.5-12,12.4-20.6,24.5-19.2
	c12,1.5,20.6,12.4,19.2,24.5L230.4,107.9z"/>
<path class="st5" d="M228.2,72.1c0,0-2.9,13.7-39.6,14.9"/>
<polyline class="st5" points="249.7,240.7 237.2,240.7 200,240.7 162.8,240.7 125.7,240.7 125.7,218.6 125.7,196.4 125.7,174.2 
	125.7,152 162.8,152 200,152 237.2,152 274.3,152 274.3,174.2 274.3,196.4 274.3,218.6 "/>
<line class="st5" x1="199.7" y1="163" x2="199.7" y2="203.6"/>
<g>
	<line class="st5" x1="180" y1="170.4" x2="219.9" y2="170.4"/>
	<line class="st5" x1="180" y1="196.3" x2="219.9" y2="196.3"/>
	<line class="st5" x1="172.5" y1="183.3" x2="227.5" y2="183.3"/>
</g>
<path class="st5" d="M227.5,218c0,6.3-5.1,11.3-11.3,11.3h-9.6v-19.2h21V218z"/>
<path class="st5" d="M172.5,218c0,6.3,5.1,11.3,11.3,11.3h9.6v-19.2h-21V218z"/>
</svg>
