<?xml version="1.0" encoding="utf-8"?>
<!-- Generator: Adobe Illustrator 21.0.2, SVG Export Plug-In . SVG Version: 6.00 Build 0)  -->
<svg version="1.1" id="Layer_1" xmlns="http://www.w3.org/2000/svg" xmlns:xlink="http://www.w3.org/1999/xlink" x="0px" y="0px"
	 width="400px" height="400px" viewBox="0 0 400 400" style="enable-background:new 0 0 400 400;" xml:space="preserve">
<style type="text/css">
	.st0{opacity:0.5;fill:#8AB9A1;}
	.st1{fill:#009EE5;}
	.st2{fill:#8CBAA3;}
	.st3{fill:none;stroke:#232323;stroke-width:6;stroke-linecap:round;stroke-linejoin:round;stroke-miterlimit:10;}
	.st4{fill:#8CBAA3;stroke:#232323;stroke-width:6;stroke-linecap:round;stroke-linejoin:round;stroke-miterlimit:10;}
	.st5{fill:none;stroke:#1E1E1E;stroke-width:6;stroke-linecap:round;stroke-linejoin:round;stroke-miterlimit:10;}
	.st6{fill:none;stroke:#1E1E1E;stroke-width:5.9319;stroke-linecap:round;stroke-linejoin:round;stroke-miterlimit:10;}
	.st7{fill:#FFFFFF;stroke:#1E1E1E;stroke-width:6;stroke-linecap:round;stroke-linejoin:round;stroke-miterlimit:10;}
	.st8{fill:#8CBAA3;stroke:#1E1E1E;stroke-width:6;stroke-linecap:round;stroke-linejoin:round;stroke-miterlimit:10;}
	.st9{fill:#009EE5;stroke:#1E1E1E;stroke-width:6;stroke-linecap:round;stroke-linejoin:round;stroke-miterlimit:10;}
	.st10{fill:#232323;}
	.st11{fill:none;stroke:#8AB9A1;stroke-width:6;stroke-linecap:round;stroke-linejoin:round;stroke-miterlimit:10;}
	.st12{fill:none;stroke:#1E1E1E;stroke-width:5.6618;stroke-linecap:round;stroke-linejoin:round;stroke-miterlimit:10;}
	.st13{fill:none;stroke:#1E1E1E;stroke-width:6.0966;stroke-linecap:round;stroke-linejoin:round;stroke-miterlimit:10;}
	.st14{fill:#FFFFFF;}
	.st15{fill:none;stroke:#231F20;stroke-width:6;stroke-linecap:round;stroke-linejoin:round;stroke-miterlimit:10;}
	.st16{fill:url(#SVGID_1_);stroke:#231F20;stroke-width:6;stroke-miterlimit:10;}
	.st17{fill:#8CBAA3;stroke:#231F20;stroke-width:6;stroke-miterlimit:10;}
	.st18{fill:#CCE0D6;}
	.st19{fill:none;stroke:#222222;stroke-width:6;stroke-linecap:round;stroke-linejoin:round;stroke-miterlimit:10;}
	.st20{fill:#FFFFFF;stroke:#232323;stroke-width:6;stroke-linecap:round;stroke-linejoin:round;stroke-miterlimit:10;}
	.st21{fill:none;stroke:#232323;stroke-width:5;stroke-linecap:round;stroke-linejoin:round;stroke-miterlimit:10;}
	.st22{fill:url(#SVGID_2_);stroke:#231F20;stroke-width:6;stroke-miterlimit:10;}
	.st23{fill:none;stroke:#009EE5;stroke-width:6;stroke-linecap:round;stroke-linejoin:round;stroke-miterlimit:10;}
	.st24{fill:#B2E2F7;}
	.st25{fill:none;stroke:#282828;stroke-width:6;stroke-linecap:round;stroke-linejoin:round;stroke-miterlimit:10;}
	.st26{fill:#009EE5;stroke:#232323;stroke-width:6;stroke-linecap:round;stroke-linejoin:round;stroke-miterlimit:10;}
	.st27{fill:none;stroke:#282828;stroke-width:5;stroke-linecap:round;stroke-linejoin:round;stroke-miterlimit:10;}
	.st28{fill:#FFFFFF;stroke:#282828;stroke-width:6;stroke-linecap:round;stroke-linejoin:round;stroke-miterlimit:10;}
	.st29{fill:none;stroke:#252122;stroke-width:6;stroke-linecap:round;stroke-linejoin:round;stroke-miterlimit:10;}
	.st30{fill:#99D8F5;}
	.st31{fill:none;stroke:#009EE5;stroke-width:6;stroke-miterlimit:10;}
	.st32{fill:#8AB9A1;stroke:#232323;stroke-width:6;stroke-linecap:round;stroke-linejoin:round;stroke-miterlimit:10;}
</style>
<path class="st1" d="M294.8,258.9c9.5,9.5,9.5,24.9,0,34.4c-9.5,9.5-24.9,9.5-35.6-1.3L138.3,171.2l34.4-34.4L294.8,258.9z"/>
<rect x="200.2" y="155.1" transform="matrix(0.7071 -0.7071 0.7071 0.7071 -91.4903 223.8612)" class="st14" width="48.6" height="134.6"/>
<rect x="106" y="111.5" transform="matrix(0.7071 -0.7071 0.7071 0.7071 -56.0742 137.4755)" class="st8" width="63.8" height="49.8"/>
<g>
	<line class="st5" x1="128.4" y1="149.8" x2="144.1" y2="165.5"/>
	<line class="st5" x1="151.2" y1="126.9" x2="166.9" y2="142.6"/>
	<line class="st5" x1="139.8" y1="138.3" x2="155.5" y2="154"/>
</g>
<g>
	<line class="st5" x1="177.1" y1="191.2" x2="192.8" y2="175.5"/>
	<g>
		<line class="st5" x1="183.9" y1="197.5" x2="199.6" y2="181.8"/>
		<line class="st5" x1="190.5" y1="204.1" x2="206.2" y2="188.4"/>
		<line class="st5" x1="197" y1="210.6" x2="212.7" y2="194.9"/>
		<line class="st5" x1="203.5" y1="217.1" x2="219.2" y2="201.4"/>
		<line class="st5" x1="225.8" y1="208" x2="210.1" y2="223.7"/>
		<line class="st5" x1="216.6" y1="230.2" x2="232.3" y2="214.5"/>
		<line class="st5" x1="223.2" y1="236.8" x2="238.9" y2="221.1"/>
		<line class="st5" x1="229.7" y1="243.3" x2="245.4" y2="227.6"/>
		<line class="st5" x1="236.3" y1="249.8" x2="252" y2="234.1"/>
		<line class="st5" x1="258.5" y1="240.7" x2="242.8" y2="256.4"/>
		<line class="st5" x1="249.3" y1="262.9" x2="265" y2="247.2"/>
		<line class="st5" x1="255.9" y1="269.5" x2="271.6" y2="253.8"/>
	</g>
</g>
<path class="st5" d="M294.8,258.9c9.5,9.5,9.5,24.9,0,34.4c-4.6,4.6-10.7,7.1-17.2,7.1c-6.4,0-12.6-2.6-17.2-7.1l-122-122l34.4-34.4
	L294.8,258.9z"/>
</svg>
