<?xml version="1.0" encoding="utf-8"?>
<!-- Generator: Adobe Illustrator 21.0.2, SVG Export Plug-In . SVG Version: 6.00 Build 0)  -->
<svg version="1.1" id="Layer_1" xmlns="http://www.w3.org/2000/svg" xmlns:xlink="http://www.w3.org/1999/xlink" x="0px" y="0px"
	 width="400px" height="400px" viewBox="0 0 400 400" style="enable-background:new 0 0 400 400;" xml:space="preserve">
<style type="text/css">
	.st0{fill:#8CBAA3;}
	.st1{fill:none;stroke:#232323;stroke-width:6;stroke-linecap:round;stroke-linejoin:round;stroke-miterlimit:10;}
	.st2{fill:#FF0000;stroke:#232323;stroke-width:6;stroke-linecap:round;stroke-linejoin:round;stroke-miterlimit:10;}
	.st3{fill:#8CBAA3;stroke:#232323;stroke-width:6;stroke-linecap:round;stroke-linejoin:round;stroke-miterlimit:10;}
	.st4{fill:#231F20;}
	.st5{fill:#FFFFFF;stroke:#232323;stroke-width:6;stroke-linecap:round;stroke-linejoin:round;stroke-miterlimit:10;}
	.st6{fill:#009EE5;stroke:#232323;stroke-width:6;stroke-linecap:round;stroke-linejoin:round;stroke-miterlimit:10;}
	.st7{fill:#009EE5;}
	.st8{opacity:0.4;}
	.st9{fill:none;stroke:#8CBAA3;stroke-width:6;stroke-linecap:round;stroke-linejoin:round;stroke-miterlimit:10;}
	.st10{fill:none;stroke:#009EE5;stroke-width:6;stroke-linecap:round;stroke-linejoin:round;stroke-miterlimit:10;}
	.st11{fill:none;stroke:#8CBAA3;stroke-width:6;stroke-linecap:round;stroke-linejoin:round;}
	.st12{fill:none;stroke:#8CBAA3;stroke-width:6;stroke-linecap:round;stroke-linejoin:round;stroke-dasharray:11.2375,11.2375;}
	
		.st13{fill:none;stroke:#8CBAA3;stroke-width:6;stroke-linecap:round;stroke-linejoin:round;stroke-miterlimit:10;stroke-dasharray:12;}
	.st14{fill:none;stroke:#231F20;stroke-width:6;stroke-linecap:round;stroke-linejoin:round;stroke-miterlimit:10;}
	.st15{fill:none;stroke:#8AB9A1;stroke-width:6;stroke-linecap:round;stroke-linejoin:round;stroke-miterlimit:10;}
	.st16{fill:none;stroke:#282828;stroke-width:6;stroke-linecap:round;stroke-linejoin:round;stroke-miterlimit:10;}
	.st17{fill:#282828;}
	.st18{fill:none;stroke:#FFFFFF;stroke-width:6;stroke-linecap:round;stroke-linejoin:round;stroke-miterlimit:10;}
</style>
<g id="Layer_2">
</g>
<g>
	<circle class="st1" cx="200" cy="200" r="102.5"/>
	<line class="st9" x1="180.8" y1="146.7" x2="171.3" y2="156.2"/>
	<line class="st9" x1="136.7" y1="172.7" x2="127.2" y2="182.2"/>
	<line class="st9" x1="213.1" y1="161.5" x2="203.6" y2="170.9"/>
	<line class="st9" x1="251.4" y1="256.9" x2="241.9" y2="266.4"/>
	<line class="st1" x1="208.3" y1="132.2" x2="217.5" y2="142"/>
	<line class="st10" x1="245.9" y1="166.2" x2="236.5" y2="175.7"/>
	<line class="st10" x1="239.3" y1="129.1" x2="229.8" y2="138.6"/>
	<line class="st1" x1="219.8" y1="202" x2="222.9" y2="215.1"/>
	<line class="st9" x1="263.3" y1="183.4" x2="266.4" y2="196.5"/>
	<line class="st1" x1="200.9" y1="228.5" x2="191.4" y2="238"/>
	<line class="st9" x1="189.6" y1="211.5" x2="180.2" y2="221"/>
	<line class="st1" x1="198.6" y1="185.3" x2="189" y2="194.6"/>
	<line class="st1" x1="134.2" y1="236.8" x2="133.4" y2="250.2"/>
	<line class="st10" x1="171.3" y1="170.4" x2="170.5" y2="183.8"/>
	<line class="st10" x1="160.4" y1="181.7" x2="147" y2="182.9"/>
	<line class="st10" x1="163.9" y1="218.6" x2="156.7" y2="229.9"/>
	<line class="st9" x1="127.2" y1="204.9" x2="126.4" y2="218.3"/>
	<line class="st1" x1="246.6" y1="238.8" x2="233.3" y2="237.1"/>
	<line class="st1" x1="191.4" y1="159.9" x2="199.1" y2="148.9"/>
	<line class="st1" x1="157.5" y1="139.4" x2="165.2" y2="128.3"/>
	<line class="st9" x1="219.9" y1="277.5" x2="224.9" y2="265.1"/>
	<line class="st10" x1="226" y1="187" x2="216.6" y2="177.5"/>
	<line class="st10" x1="254.2" y1="202" x2="244.8" y2="192.5"/>
	<line class="st10" x1="203.8" y1="265.1" x2="194.4" y2="255.5"/>
	<line class="st1" x1="143.4" y1="206.3" x2="152.4" y2="196.3"/>
	<line class="st1" x1="241.5" y1="223.1" x2="250.4" y2="213.1"/>
	<line class="st10" x1="209.4" y1="243.5" x2="222.8" y2="242.3"/>
	<line class="st1" x1="258.8" y1="174.6" x2="267.8" y2="164.6"/>
	<line class="st1" x1="264.8" y1="234" x2="273.8" y2="224.1"/>
	<line class="st9" x1="234.5" y1="151.5" x2="247.9" y2="150.1"/>
	<line class="st10" x1="182.3" y1="125.3" x2="195.6" y2="123.9"/>
	<line class="st1" x1="153.7" y1="157.8" x2="144.3" y2="148.3"/>
	<line class="st1" x1="170.2" y1="274.9" x2="181.5" y2="267.7"/>
	<line class="st1" x1="166.1" y1="255" x2="156.7" y2="245.4"/>
</g>
</svg>
