<?xml version="1.0" encoding="utf-8"?>
<!-- Generator: Adobe Illustrator 21.0.2, SVG Export Plug-In . SVG Version: 6.00 Build 0)  -->
<svg version="1.1" id="Layer_1" xmlns="http://www.w3.org/2000/svg" xmlns:xlink="http://www.w3.org/1999/xlink" x="0px" y="0px"
	 width="400px" height="400px" viewBox="0 0 400 400" style="enable-background:new 0 0 400 400;" xml:space="preserve">
<style type="text/css">
	.st0{opacity:0.5;fill:#8AB9A1;}
	.st1{fill:#009EE5;}
	.st2{fill:#8CBAA3;}
	.st3{fill:none;stroke:#232323;stroke-width:6;stroke-linecap:round;stroke-linejoin:round;stroke-miterlimit:10;}
	.st4{fill:#8CBAA3;stroke:#232323;stroke-width:6;stroke-linecap:round;stroke-linejoin:round;stroke-miterlimit:10;}
	.st5{fill:none;stroke:#1E1E1E;stroke-width:6;stroke-linecap:round;stroke-linejoin:round;stroke-miterlimit:10;}
	.st6{fill:none;stroke:#1E1E1E;stroke-width:5.9319;stroke-linecap:round;stroke-linejoin:round;stroke-miterlimit:10;}
	.st7{fill:#FFFFFF;stroke:#1E1E1E;stroke-width:6;stroke-linecap:round;stroke-linejoin:round;stroke-miterlimit:10;}
	.st8{fill:#8CBAA3;stroke:#1E1E1E;stroke-width:6;stroke-linecap:round;stroke-linejoin:round;stroke-miterlimit:10;}
	.st9{fill:#009EE5;stroke:#1E1E1E;stroke-width:6;stroke-linecap:round;stroke-linejoin:round;stroke-miterlimit:10;}
	.st10{fill:#232323;}
	.st11{fill:none;stroke:#8AB9A1;stroke-width:6;stroke-linecap:round;stroke-linejoin:round;stroke-miterlimit:10;}
	.st12{fill:none;stroke:#1E1E1E;stroke-width:5.6618;stroke-linecap:round;stroke-linejoin:round;stroke-miterlimit:10;}
	.st13{fill:none;stroke:#1E1E1E;stroke-width:6.0966;stroke-linecap:round;stroke-linejoin:round;stroke-miterlimit:10;}
	.st14{fill:#FFFFFF;}
	.st15{fill:none;stroke:#231F20;stroke-width:6;stroke-linecap:round;stroke-linejoin:round;stroke-miterlimit:10;}
	.st16{fill:url(#SVGID_1_);stroke:#231F20;stroke-width:6;stroke-miterlimit:10;}
	.st17{fill:#8CBAA3;stroke:#231F20;stroke-width:6;stroke-miterlimit:10;}
	.st18{fill:#CCE0D6;}
	.st19{fill:none;stroke:#222222;stroke-width:6;stroke-linecap:round;stroke-linejoin:round;stroke-miterlimit:10;}
	.st20{fill:#FFFFFF;stroke:#232323;stroke-width:6;stroke-linecap:round;stroke-linejoin:round;stroke-miterlimit:10;}
	.st21{fill:none;stroke:#232323;stroke-width:5;stroke-linecap:round;stroke-linejoin:round;stroke-miterlimit:10;}
	.st22{fill:url(#SVGID_2_);stroke:#231F20;stroke-width:6;stroke-miterlimit:10;}
	.st23{fill:none;stroke:#009EE5;stroke-width:6;stroke-linecap:round;stroke-linejoin:round;stroke-miterlimit:10;}
	.st24{fill:#B2E2F7;}
	.st25{fill:none;stroke:#282828;stroke-width:6;stroke-linecap:round;stroke-linejoin:round;stroke-miterlimit:10;}
	.st26{fill:#009EE5;stroke:#232323;stroke-width:6;stroke-linecap:round;stroke-linejoin:round;stroke-miterlimit:10;}
	.st27{fill:none;stroke:#282828;stroke-width:5;stroke-linecap:round;stroke-linejoin:round;stroke-miterlimit:10;}
	.st28{fill:#FFFFFF;stroke:#282828;stroke-width:6;stroke-linecap:round;stroke-linejoin:round;stroke-miterlimit:10;}
	.st29{fill:none;stroke:#252122;stroke-width:6;stroke-linecap:round;stroke-linejoin:round;stroke-miterlimit:10;}
	.st30{fill:#99D8F5;}
	.st31{fill:none;stroke:#009EE5;stroke-width:6;stroke-miterlimit:10;}
	.st32{fill:#8AB9A1;stroke:#232323;stroke-width:6;stroke-linecap:round;stroke-linejoin:round;stroke-miterlimit:10;}
</style>
<path class="st2" d="M232.4,136.9c1,5.7,0.5,11.5-1.6,17.1c-3,8.1-8.9,14.7-16.7,18.4l-7.2,25.5c21-3.5,38.4-17,45.4-36
	c3.9-10.5,4.5-21.8,2-32.4L232.4,136.9z"/>
<polygon class="st1" points="145.4,224.6 167.1,146.7 158.2,145.5 150.2,150.8 144.9,153.2 141.7,159.6 136.4,178.8 127.8,210.1 
	146.9,215.5 144.4,224.3 "/>
<line class="st3" x1="184.2" y1="236.5" x2="146.8" y2="236.5"/>
<path class="st3" d="M159.8,176.2l-10.2,36.5l-2.5,9.1c-1.7,6.1-8,9.6-14.1,7.9c-6.1-1.7-9.6-8-7.9-14.1l4.5-16.2l11.1-40
	c2.9-10.4,13.6-16.4,24-13.6l4.8,1.3c0.4,0.1,23.6,6.6,23.6,6.6"/>
<g>
	<path class="st3" d="M160.9,268.2v39l0,10.4c0,6.9-5.6,12.6-12.6,12.6c-7,0-12.6-5.6-12.6-12.6v-18.5v-53.7"/>
	<path class="st3" d="M207,197.9l-10.7,38.3l0.4,71l0,10.4c0,6.9-5.6,12.6-12.6,12.6c-7,0-12.6-5.6-12.6-12.6v-18.5v-30.9"/>
</g>
<path class="st3" d="M171.7,268.2L171.7,268.2c0-3-2.4-5.4-5.4-5.4l0,0c-3,0-5.4,2.4-5.4,5.4l0,0"/>
<polygon class="st2" points="210.7,92.9 200.3,96 193.4,103.4 193.5,107.7 205.9,110.2 217.7,110.4 223.7,107.9 226.6,104 
	227.7,100 219.8,94.1 "/>
<path class="st3" d="M222.3,134.8c-4.1,9.9-15.4,14.6-25.3,10.5h0c-9.9-4.1-14.6-15.4-10.5-25.3l6.6-16c4.1-9.9,15.4-14.6,25.3-10.5
	c9.9,4.1,14.6,15.4,10.5,25.3L222.3,134.8z"/>
<path class="st3" d="M228.9,104c0,0-5.7,10.9-37.2,3.3"/>
<g>
	<path class="st3" d="M214.1,172.4c7.8-3.8,13.7-10.3,16.7-18.4c3.1-8.4,2.7-17.4-1-25.5c-2.2-4.7-0.9-10,2.7-13.3
		c0.8-0.8,1.8-1.4,2.9-1.9c5.8-2.7,12.6-0.1,15.2,5.6c6.3,13.7,6.9,28.9,1.7,43c-7,18.9-24.4,32.5-45.4,36"/>
</g>
<path class="st15" d="M258.2,330v-20.2c-40,0-37.4-40.7-37.4-40.7l37.5-0.1v-53.6h17.3"/>
<path class="st21" d="M207.3,143c-1.1,2.3-4,3.3-6.3,2.2l0,0c-2.3-1.1-3.3-4-2.2-6.3l2-4c1.1-2.3,4-3.3,6.3-2.2l0,0
	c2.3,1.1,3.3,4,2.2,6.3L207.3,143z"/>
<path class="st3" d="M240.7,85.5c1.1-10.5,10.6-18.2,21.1-17c8.4,0.9,14.5,8.5,13.6,16.9c-0.7,6.7-6.8,11.6-13.5,10.9
	c-5.4-0.6-9.3-5.4-8.7-10.8c0.5-4.3,4.3-7.4,8.7-7c3.5,0.4,6,3.5,5.6,6.9c-0.2,1.8-1.3,3.2-2.7,4"/>
<g>
	<path class="st3" d="M201.5,162.9c-5.3,8.6-1.2,21.1,8.1,24.9c9.4,3.8,13.5,16.2,8.1,24.9"/>
	<path class="st3" d="M217.9,212.9c-5.3,8.6-1.2,21.1,8.1,24.9"/>
</g>
</svg>
