<?xml version="1.0" encoding="utf-8"?>
<!-- Generator: Adobe Illustrator 21.0.2, SVG Export Plug-In . SVG Version: 6.00 Build 0)  -->
<svg version="1.1" xmlns="http://www.w3.org/2000/svg" xmlns:xlink="http://www.w3.org/1999/xlink" x="0px" y="0px" width="400px"
	 height="400px" viewBox="0 0 400 400" style="enable-background:new 0 0 400 400;" xml:space="preserve">
<style type="text/css">
	.st0{fill:none;stroke:#232323;stroke-width:6;stroke-linecap:round;stroke-linejoin:round;stroke-miterlimit:10;}
	.st1{fill:#FFFFFF;stroke:#232323;stroke-width:6;stroke-miterlimit:10;}
	.st2{fill:none;stroke:#232323;stroke-width:6;stroke-miterlimit:10;}
	.st3{fill:#99C2AD;}
	.st4{fill:#99D8F5;}
	.st5{fill:#D9F0FB;}
	.st6{fill:#FFFFFF;stroke:#1A171B;stroke-width:6;stroke-linecap:round;stroke-linejoin:round;stroke-miterlimit:10;}
	.st7{fill:#FFFFFF;stroke:#232323;stroke-width:6;stroke-linecap:round;stroke-linejoin:round;stroke-miterlimit:10;}
	.st8{fill:#CCECFA;}
	.st9{fill:#B2D1C2;stroke:#1A171B;stroke-width:6;stroke-linecap:round;stroke-linejoin:round;stroke-miterlimit:10;}
	.st10{fill:#80B299;}
	.st11{fill:#B2E2F7;}
	.st12{fill:#8CD3F3;}
	.st13{fill:#FFFFFF;stroke:#231F20;stroke-width:6;stroke-linecap:round;stroke-linejoin:round;stroke-miterlimit:10;}
	.st14{fill:#8FD4F4;stroke:#231F20;stroke-width:6;stroke-linecap:round;stroke-linejoin:round;stroke-miterlimit:10;}
	.st15{fill:none;stroke:#231F20;stroke-width:6;stroke-linecap:round;stroke-linejoin:round;stroke-miterlimit:10;}
	.st16{fill:#99C2AD;stroke:#000000;stroke-width:6;stroke-linecap:round;stroke-linejoin:round;stroke-miterlimit:10;}
	.st17{fill:#B2D1C2;}
	.st18{fill:#B2D1C2;stroke:#232323;stroke-width:6;stroke-linecap:round;stroke-linejoin:round;stroke-miterlimit:10;}
	.st19{fill:none;stroke:#222222;stroke-width:6;stroke-linecap:round;stroke-linejoin:round;stroke-miterlimit:10;}
	.st20{fill:#009EE5;stroke:#232323;stroke-width:6;stroke-linecap:round;stroke-linejoin:round;stroke-miterlimit:10;}
	.st21{fill:#FFFFFF;stroke:#000000;stroke-width:6;stroke-linecap:round;stroke-linejoin:round;stroke-miterlimit:10;}
	.st22{fill:none;stroke:#000000;stroke-width:6;stroke-linecap:round;stroke-linejoin:round;stroke-miterlimit:10;}
	.st23{fill:none;stroke:#000000;stroke-width:6;stroke-miterlimit:10;}
	.st24{fill:#FFFFFF;stroke:#000000;stroke-width:6;stroke-miterlimit:10;}
	.st25{fill:#99C2AD;stroke:#1A171B;stroke-width:6;stroke-linecap:round;stroke-linejoin:round;stroke-miterlimit:10;}
	.st26{fill:none;stroke:#1A171B;stroke-width:6;stroke-linecap:round;stroke-linejoin:round;stroke-miterlimit:10;}
	.st27{fill:#D9F0FB;stroke:#1A171B;stroke-width:6;stroke-miterlimit:10;}
	.st28{fill:#231F20;}
	.st29{fill:none;stroke:#1A171B;stroke-miterlimit:10;}
	.st30{fill:#CCE0D6;stroke:#000000;stroke-width:6;stroke-linecap:round;stroke-linejoin:round;stroke-miterlimit:10;}
	.st31{fill:#BFE7F8;stroke:#000000;stroke-width:6;stroke-linecap:round;stroke-linejoin:round;stroke-miterlimit:10;}
	.st32{fill:#A6DDF6;}
	.st33{fill:#D9F0FB;stroke:#231F20;stroke-width:6;stroke-linecap:round;stroke-linejoin:round;stroke-miterlimit:10;}
	.st34{fill:#D9F0FB;stroke:#1A171B;stroke-width:6;stroke-linecap:round;stroke-linejoin:round;stroke-miterlimit:10;}
	.st35{fill:#D9E8E0;stroke:#000000;stroke-width:6;stroke-linecap:round;stroke-linejoin:round;stroke-miterlimit:10;}
	.st36{fill:#99D8F5;stroke:#000000;stroke-width:6;stroke-linecap:round;stroke-linejoin:round;stroke-miterlimit:10;}
	.st37{fill:none;stroke:#231F20;stroke-width:6;stroke-miterlimit:10;}
	.st38{fill:none;stroke:#282828;stroke-width:6;stroke-linecap:round;stroke-linejoin:round;stroke-miterlimit:10;}
	.st39{fill:#8CBAA3;}
	.st40{fill:#009EE5;}
	.st41{fill:#FFFFFF;}
	.st42{fill:#FFFFFF;stroke:#222222;stroke-width:6;stroke-miterlimit:10;}
	.st43{fill:#1A171B;}
	.st44{fill:#33B1EA;}
	.st45{fill:#66C5EF;}
	.st46{fill:#80CEF2;}
	.st47{fill:#99D8F5;stroke:#232323;stroke-width:6;stroke-linecap:round;stroke-linejoin:round;stroke-miterlimit:10;}
	.st48{fill:#8CBAA3;stroke:#232323;stroke-width:6;stroke-linecap:round;stroke-linejoin:round;stroke-miterlimit:10;}
	.st49{fill:#CCE0D6;}
	.st50{fill:#99D8F5;stroke:#1A171B;stroke-width:6;stroke-linecap:round;stroke-linejoin:round;stroke-miterlimit:10;}
	.st51{fill:#FFFFFF;stroke:#232323;stroke-miterlimit:10;}
	.st52{fill:#8CBAA3;stroke:#1A171B;stroke-width:6;stroke-miterlimit:10;}
	.st53{fill:none;stroke:#222322;stroke-width:6;stroke-linecap:round;stroke-linejoin:round;stroke-miterlimit:10;}
	.st54{fill:none;}
	.st55{fill:#BFD9CC;stroke:#1A171B;stroke-width:6;stroke-linecap:round;stroke-linejoin:round;stroke-miterlimit:10;}
	.st56{fill:#FFFFFF;stroke:#1A171B;stroke-width:6;stroke-miterlimit:10;}
	.st57{fill:none;stroke:#009EE5;stroke-width:6;stroke-miterlimit:10;}
	.st58{fill:none;stroke:#8CBAA3;stroke-width:6;stroke-linecap:round;stroke-linejoin:round;stroke-miterlimit:10;}
	.st59{fill:none;stroke:#1E1E1E;stroke-width:5.6618;stroke-linecap:round;stroke-linejoin:round;stroke-miterlimit:10;}
	.st60{fill:none;stroke:#1E1E1E;stroke-width:6.0966;stroke-linecap:round;stroke-linejoin:round;stroke-miterlimit:10;}
	.st61{fill:none;stroke:#1E1E1E;stroke-width:6;stroke-linecap:round;stroke-linejoin:round;stroke-miterlimit:10;}
	.st62{fill:#87B79F;stroke:#1E1E1E;stroke-width:6;stroke-linecap:round;stroke-linejoin:round;stroke-miterlimit:10;}
	.st63{fill:#FFFFFF;stroke:#282828;stroke-width:6;stroke-linecap:round;stroke-linejoin:round;stroke-miterlimit:10;}
	.st64{fill:none;stroke:#232323;stroke-width:5;stroke-linecap:round;stroke-linejoin:round;stroke-miterlimit:10;}
	.st65{fill:url(#SVGID_1_);stroke:#231F20;stroke-width:6;stroke-miterlimit:10;}
	.st66{fill:#8CBAA3;stroke:#231F20;stroke-width:6;stroke-miterlimit:10;}
	.st67{fill:#009FE8;}
	.st68{fill:#232323;}
	.st69{fill:#8CBAA3;stroke:#1E1E1E;stroke-width:6;stroke-linecap:round;stroke-linejoin:round;stroke-miterlimit:10;}
	.st70{fill:none;stroke:#009EE5;stroke-width:6;stroke-linecap:round;stroke-linejoin:round;stroke-miterlimit:10;}
	.st71{fill:none;stroke:#232323;stroke-width:4.2836;stroke-linecap:round;stroke-linejoin:round;stroke-miterlimit:10;}
</style>
<g id="Layer_1">
	<polygon class="st39" points="219.7,137.3 230.8,139.9 238.1,146.6 241.5,153.6 242.1,161.7 239.7,184.1 235.7,220.8 210.9,218.1 	
		"/>
	<path class="st41" d="M197.6,168.9c1-6.8,7.3-11.5,14.1-10.5c6.8,1,11.5,7.3,10.5,14.1l-1.7,6.1l-3.6,4.6l-11.6-2.5l-9.5-5.7
		L197.6,168.9z"/>
	<path class="st40" d="M193.9,175.3c-1.9,6.2-7,5-13.2,3.2c-6.2-1.7-9.9-8.1-8.3-14.4l-25-6c-5.6,20,6.3,39.8,26.3,45.4
		c20,5.6,37.5-1.9,43.1-21.9L193.9,175.3z"/>
	<g>
		<path class="st0" d="M212.1,198.5l-1.7,15.9l-1.2,10.6c-0.8,7.1,4.4,13.5,11.5,14.3c7.1,0.8,13.5-4.4,14.3-11.5l2-18.9l5.1-46.8
			c1.3-12.1-7.5-23.1-19.6-24.4l-5.6-0.6c-0.5-0.1-10.4-1.1-10.4-1.1"/>
	</g>
	<line class="st0" x1="199.7" y1="226.4" x2="167" y2="226.4"/>
	<g>
		<polygon class="st39" points="194.7,62.1 184,68.2 178.2,78.2 179.4,82.9 193.8,82.4 207,79.7 212.9,75.4 215.1,70.4 215.3,65.6 
			205.1,61.1 		"/>
		<g>
			<path class="st0" d="M192.9,123.5c-11.8-2-19.9-13-18.2-24.7"/>
			<path class="st0" d="M174.7,98.8l3.4-20c2-12,13.4-20,25.3-18l0,0c5.7,1,10.9,4.2,14.3,8.9c3.4,4.7,4.7,10.6,3.8,16.4l-3.3,19.4
				c-1,5.7-4.3,11.2-9,14.6c-4.7,3.4-10.5,4.4-16.3,3.4h0"/>
		</g>
		<path class="st0" d="M217.7,69.7c0,0-3.5,13.5-40.2,13.1"/>
	</g>
	<g>
		<polyline class="st15" points="293.2,119.3 273.9,119.4 292.4,98.8 		"/>
		<line class="st15" x1="274.7" y1="139.9" x2="293.2" y2="119.3"/>
	</g>
	<path class="st0" d="M170.5,165.1c-1,6.8,3.7,13.2,10.5,14.2c6.8,1,13.2-3.7,14.1-10.5"/>
	<path class="st0" d="M219.9,172.2c1-6.8-3.7-13.2-10.5-14.2c-6.8-1-13.2,3.7-14.1,10.5"/>
	<g>
		<path class="st0" d="M220,171.4c-3.1,20.9-20.5,35.6-41.3,32.5c-20.9-3.1-35.3-22.5-32.3-43.3l0.9-8.8c1.3-12.1,12-20.9,24.2-19.6
			l5.6,0.6c0.5,0.1,10.4,1.1,10.4,1.1"/>
	</g>
	<g>
		<path class="st0" d="M184.3,262.6v44.2l0.1,11.8c0,7.9-6.4,14.3-14.3,14.3c-7.9,0-14.3-6.4-14.3-14.3v-20.9v-60.9"/>
		<path class="st0" d="M225,247.9v58.9l0.1,11.8c0,7.9-6.4,14.3-14.3,14.3c-7.9,0-14.3-6.4-14.3-14.3v-20.9v-35"/>
	</g>
	<path class="st0" d="M196.5,262.6L196.5,262.6c0-3.4-2.7-6.1-6.1-6.1l0,0c-3.4,0-6.1,2.7-6.1,6.1l0,0"/>
</g>
<g id="Capa_2">
</g>
</svg>
